<?xml version="1.0" standalone="no"?>
<!DOCTYPE svg PUBLIC "-//W3C//DTD SVG 20010904//EN"
 "http://www.w3.org/TR/2001/REC-SVG-20010904/DTD/svg10.dtd">
<svg version="1.0" xmlns="http://www.w3.org/2000/svg"
 width="512.000000pt" height="512.000000pt" viewBox="0 0 512.000000 512.000000"
 preserveAspectRatio="xMidYMid meet">
<metadata>
Created by potrace 1.14, written by Peter Selinger 2001-2017
</metadata>
<g transform="translate(0.000000,512.000000) scale(0.100000,-0.100000)"
fill="#000000" stroke="none">
<path d="M2428 5015 c-2 -2 -39 -5 -83 -8 -314 -24 -635 -118 -925 -269 -589
-309 -1022 -833 -1214 -1471 -19 -62 -39 -137 -45 -167 -20 -98 -21 -105 -27
-140 -21 -146 -27 -214 -28 -365 -2 -173 7 -319 28 -430 2 -11 7 -40 11 -65 4
-25 18 -85 30 -135 131 -512 402 -947 802 -1286 50 -43 104 -86 120 -96 15 -9
30 -20 33 -23 9 -11 154 -104 205 -132 203 -114 501 -231 665 -262 14 -2 59
-11 100 -19 90 -18 130 -24 235 -34 120 -11 408 -8 510 6 50 7 106 14 125 17
19 2 42 6 50 9 8 2 33 7 55 11 58 9 267 71 360 106 379 146 709 376 974 679
94 108 100 115 162 204 188 270 330 595 393 900 4 17 9 41 11 55 3 14 8 48 11
75 3 28 7 52 9 55 16 27 24 386 12 545 -69 892 -656 1700 -1489 2049 -230 96
-408 142 -700 181 -43 6 -385 14 -390 10z"/>
</g>
</svg>
