<svg xmlns="http://www.w3.org/2000/svg" version="1.1" xmlns:xlink="http://www.w3.org/1999/xlink" xmlns:svgjs="http://svgjs.com/svgjs" width="1440" height="560" preserveAspectRatio="none" viewBox="0 0 1440 560"><g mask="url(&quot;#SvgjsMask1197&quot;)" fill="none"><rect width="1440" height="560" x="0" y="0" fill="rgba(251, 251, 251, 1)"></rect><rect width="324" height="324" clip-path="url(&quot;#SvgjsClipPath1198&quot;)" x="627.87" y="-58.65" fill="url(#SvgjsPattern1199)" transform="rotate(85.92, 789.87, 103.35)"></rect><path d="M937.92 94.29a5.6 5.6 0 1 0-10.99 2.16 5.6 5.6 0 1 0 10.99-2.16zM922.22 97.37a5.6 5.6 0 1 0-10.99 2.16 5.6 5.6 0 1 0 10.99-2.16zM906.52 100.45a5.6 5.6 0 1 0-10.99 2.16 5.6 5.6 0 1 0 10.99-2.16zM890.82 103.53a5.6 5.6 0 1 0-10.99 2.16 5.6 5.6 0 1 0 10.99-2.16z" fill="rgba(232, 232, 232, 1)"></path><circle r="78.68018196049202" cx="901.3" cy="233.95" fill="rgba(52, 100, 224, 1)"></circle><path d="M769.3 43.4 L814.6099999999999 167.60000000000002L739.6130358821737 157.84196411782622z" stroke="rgba(52, 100, 224, 1)" stroke-width="2.29"></path><path d="M1341.65 245.42L1354.38 244.02 1358.54 256.13 1371.27 254.74 1375.43 266.85 1388.16 265.45 1392.32 277.56M1337.37 252.18L1350.1 250.78 1354.25 262.89 1366.98 261.49 1371.14 273.6 1383.87 272.2 1388.03 284.32M1333.08 258.93L1345.81 257.53 1349.97 269.65 1362.7 268.25 1366.86 280.36 1379.59 278.96 1383.75 291.07" stroke="rgba(95, 133, 231, 1)" stroke-width="2.32"></path><rect width="324" height="324" clip-path="url(&quot;#SvgjsClipPath1200&quot;)" x="903.94" y="158.77" fill="url(#SvgjsPattern1201)" transform="rotate(55.67, 1065.94, 320.77)"></rect><path d="M1179.6 180.28L1180.8 193.03 1168.63 197 1169.83 209.75 1157.65 213.72 1158.85 226.47 1146.68 230.44M1172.92 175.89L1174.12 188.64 1161.94 192.61 1163.14 205.36 1150.97 209.33 1152.17 222.08 1139.99 226.05M1166.23 171.5L1167.43 184.25 1155.25 188.22 1156.45 200.97 1144.28 204.94 1145.48 217.69 1133.3 221.66" stroke="rgba(52, 100, 224, 1)" stroke-width="2.08" stroke-dasharray="2, 2"></path><path d="M170.47 444.93L158.24 448.73 151.85 437.64 139.62 441.45 133.22 430.35 120.99 434.16 114.6 423.06M173.39 437.48L161.16 441.28 154.76 430.19 142.54 434 136.14 422.9 123.91 426.71 117.51 415.61" stroke="rgba(52, 100, 224, 1)" stroke-width="1.61" stroke-dasharray="3, 2"></path><path d="M761.34 462.90999999999997 L793.42 482.86L763.7876261146347 486.47737388536535z" fill="rgba(95, 133, 231, 1)"></path><path d="M1478.69 441.38 L1508.6000000000001 477.76L1512.5280627461837 440.68693725381627z" fill="rgba(52, 100, 224, 1)"></path><circle r="46.666666666666664" cx="453.87" cy="98.01" fill="rgba(232, 232, 232, 1)"></circle><path d="M1398.32 680.93 L1409.9099999999999 557.8599999999999L1353.44339190281 568.7233919028101z" fill="rgba(52, 100, 224, 1)"></path></g><defs><mask id="SvgjsMask1197"><rect width="1440" height="560" fill="#ffffff"></rect></mask><pattern x="0" y="0" width="324" height="6" patternUnits="userSpaceOnUse" id="SvgjsPattern1199"><rect width="324" height="3" x="0" y="0" fill="rgba(232, 232, 232, 1)"></rect><rect width="324" height="3" x="0" y="3" fill="rgba(0, 0, 0, 0)"></rect></pattern><clipPath id="SvgjsClipPath1198"><circle r="81" cx="789.87" cy="103.35"></circle></clipPath><pattern x="0" y="0" width="6" height="6" patternUnits="userSpaceOnUse" id="SvgjsPattern1201"><path d="M3 1L3 5M1 3L5 3" stroke="rgba(95, 133, 231, 1)" fill="none" stroke-width="1.66"></path></pattern><clipPath id="SvgjsClipPath1200"><circle r="81" cx="1065.94" cy="320.77"></circle></clipPath></defs></svg>