<svg xmlns="http://www.w3.org/2000/svg" version="1.1" xmlns:xlink="http://www.w3.org/1999/xlink" xmlns:svgjs="http://svgjs.com/svgjs" width="1440" height="560" preserveAspectRatio="none" viewBox="0 0 1440 560"><g mask="url(&quot;#SvgjsMask1010&quot;)" fill="none"><rect width="1440" height="560" x="0" y="0" fill="#0e2a47"></rect><path d="M1127.64 397.47 a46.85 46.85 0 1 0 93.7 0 a46.85 46.85 0 1 0 -93.7 0z" fill="rgba(52, 100, 224, 1)"></path><path d="M389.52 412.62 a21.04 21.04 0 1 0 42.08 0 a21.04 21.04 0 1 0 -42.08 0z" fill="rgba(52, 100, 224, 1)"></path><path d="M723.57 539.01L778.17 539.01L778.17 560.5L723.57 560.5z" stroke="rgba(52, 100, 224, 1)"></path><path d="M1422.74 182.34L1433.41 182.34L1433.41 193.01L1422.74 193.01z" stroke="rgba(240, 244, 253, 1)"></path><path d="M1144.94 337.09 a18.97 18.97 0 1 0 37.94 0 a18.97 18.97 0 1 0 -37.94 0z" fill="rgba(52, 100, 224, 1)"></path><path d="M760.38 363.6 a47.27 47.27 0 1 0 94.54 0 a47.27 47.27 0 1 0 -94.54 0z" stroke="rgba(52, 100, 224, 1)"></path><path d="M590.71 277.93a16.85 16.85 0 1 0 17.26 28.94z" stroke="rgba(52, 100, 224, 1)"></path><path d="M184.88 543.67L215.27 543.67L215.27 574.06L184.88 574.06z" fill="rgba(52, 100, 224, 1)"></path><path d="M42.67 370.09L84.27 370.09L84.27 411.69L42.67 411.69z" stroke="rgba(240, 244, 253, 1)"></path><path d="M478.89 309.64L532.91 309.64L532.91 363.66L478.89 363.66z" stroke="rgba(240, 244, 253, 1)"></path><path d="M14.79 190.33L20.93 190.33L20.93 196.47L14.79 196.47z" fill="rgba(240, 244, 253, 1)"></path><path d="M174.4 552.96L218.14 552.96L218.14 599.83L174.4 599.83z" fill="rgba(240, 244, 253, 1)"></path><path d="M486.33 523.75L525.07 523.75L525.07 562.49L486.33 562.49z" fill="rgba(240, 244, 253, 1)"></path><path d="M854.96 285.64L897.08 285.64L897.08 327.76L854.96 327.76z" fill="rgba(52, 100, 224, 1)"></path><path d="M866.72 219.19a9.97 9.97 0 1 0 18.06-8.44z" stroke="rgba(240, 244, 253, 1)"></path><path d="M1090.48 415.38L1090.82 415.38L1090.82 415.72L1090.48 415.72z" fill="rgba(52, 100, 224, 1)"></path><path d="M1180.11 121.37a28.12 28.12 0 1 0 27.85 48.86z" fill="rgba(240, 244, 253, 1)"></path><path d="M1415.71 461.68a38.72 38.72 0 1 0-74.43-21.4z" stroke="rgba(240, 244, 253, 1)"></path><path d="M1260.52 11.86a48.12 48.12 0 1 0-95.4-12.63z" fill="rgba(240, 244, 253, 1)"></path><path d="M248.01 235.57 a14.85 14.85 0 1 0 29.7 0 a14.85 14.85 0 1 0 -29.7 0z" fill="rgba(52, 100, 224, 1)"></path><path d="M49.31 348.29L66.78 348.29L66.78 355.27L49.31 355.27z" fill="rgba(240, 244, 253, 1)"></path><path d="M866.36 329.73a5.86 5.86 0 1 0 0.86-11.69z" fill="rgba(52, 100, 224, 1)"></path><path d="M696.4 202.44 a23.25 23.25 0 1 0 46.5 0 a23.25 23.25 0 1 0 -46.5 0z" stroke="rgba(52, 100, 224, 1)"></path><path d="M716.46 202.19 a34.23 34.23 0 1 0 68.46 0 a34.23 34.23 0 1 0 -68.46 0z" fill="rgba(52, 100, 224, 1)"></path><path d="M113.47 536.56L161.47 536.56L161.47 560.67L113.47 560.67z" fill="rgba(240, 244, 253, 1)"></path><path d="M734.97 452.87a45.51 45.51 0 1 0 69.77 58.46z" stroke="rgba(52, 100, 224, 1)"></path><path d="M1353.56 540.15a15.13 15.13 0 1 0-7.88 29.22z" stroke="rgba(52, 100, 224, 1)"></path><path d="M143.16 280.11L174.91 280.11L174.91 311.86L143.16 311.86z" fill="rgba(240, 244, 253, 1)"></path><path d="M440.24 452.75 a21.23 21.23 0 1 0 42.46 0 a21.23 21.23 0 1 0 -42.46 0z" stroke="rgba(52, 100, 224, 1)"></path><path d="M335.86 348.31 a22.97 22.97 0 1 0 45.94 0 a22.97 22.97 0 1 0 -45.94 0z" fill="rgba(240, 244, 253, 1)"></path><path d="M701.26 114.37 a0.42 0.42 0 1 0 0.84 0 a0.42 0.42 0 1 0 -0.84 0z" fill="rgba(240, 244, 253, 1)"></path><path d="M173.87 415.48L188.34 415.48L188.34 429.95L173.87 429.95z" fill="rgba(52, 100, 224, 1)"></path><path d="M1183.4 100.42a46.88 46.88 0 1 0-66.19-66.41z" fill="rgba(52, 100, 224, 1)"></path></g><defs><mask id="SvgjsMask1010"><rect width="1440" height="560" fill="#ffffff"></rect></mask></defs></svg>