<svg xmlns="http://www.w3.org/2000/svg" version="1.1" xmlns:xlink="http://www.w3.org/1999/xlink" xmlns:svgjs="http://svgjs.com/svgjs" width="1440" height="560" preserveAspectRatio="none" viewBox="0 0 1440 560"><g mask="url(&quot;#SvgjsMask1202&quot;)" fill="none"><rect width="1440" height="560" x="0" y="0" fill="rgba(251, 251, 251, 1)"></rect><rect width="276" height="276" clip-path="url(&quot;#SvgjsClipPath1203&quot;)" x="1192.12" y="-128.43" fill="url(#SvgjsPattern1204)" transform="rotate(319.23, 1330.12, 9.57)"></rect><circle r="46.666666666666664" cx="267.35" cy="137.26" stroke="rgba(52, 100, 224, 1)" stroke-width="1"></circle><path d="M321.2 85.16L318.68 72.61 330.38 67.4 327.86 54.84 339.56 49.63 337.04 37.07 348.74 31.86M328.31 88.84L325.79 76.28 337.49 71.07 334.97 58.51 346.67 53.3 344.15 40.74 355.85 35.53" stroke="rgba(232, 232, 232, 1)" stroke-width="3" stroke-dasharray="2, 2"></path><rect width="176.64" height="176.64" clip-path="url(&quot;#SvgjsClipPath1205&quot;)" x="451.49" y="415.71" fill="url(#SvgjsPattern1206)" transform="rotate(349.83, 539.81, 504.03)"></rect><path d="M862.03 275.32a5.6 5.6 0 1 0-4.77 10.13 5.6 5.6 0 1 0 4.77-10.13zM855.21 289.79a5.6 5.6 0 1 0-4.77 10.13 5.6 5.6 0 1 0 4.77-10.13zM848.39 304.27a5.6 5.6 0 1 0-4.77 10.13 5.6 5.6 0 1 0 4.77-10.13zM841.57 318.74a5.6 5.6 0 1 0-4.77 10.13 5.6 5.6 0 1 0 4.77-10.13zM861.2 239.55a5.6 5.6 0 1 0-4.77 10.13 5.6 5.6 0 1 0 4.77-10.13zM854.38 254.02a5.6 5.6 0 1 0-4.77 10.14 5.6 5.6 0 1 0 4.77-10.14zM847.56 268.5a5.6 5.6 0 1 0-4.77 10.13 5.6 5.6 0 1 0 4.77-10.13zM840.74 282.97a5.6 5.6 0 1 0-4.77 10.13 5.6 5.6 0 1 0 4.77-10.13z" stroke="rgba(95, 133, 231, 1)" stroke-width="1" stroke-dasharray="3, 2"></path><circle r="46.666666666666664" cx="280.52" cy="413.2" fill="rgba(52, 100, 224, 1)"></circle><circle r="76.54212727702188" cx="152.96" cy="287.94" fill="rgba(52, 100, 224, 1)"></circle><path d="M1022.23 386.83000000000004 L955.28 333.24L951.3923526059192 397.3976473940809z" fill="rgba(95, 133, 231, 1)"></path><circle r="81.30413897035741" cx="668.57" cy="237.4" stroke="rgba(95, 133, 231, 1)" stroke-width="1.89" stroke-dasharray="4, 4"></circle><rect width="261.6" height="261.6" clip-path="url(&quot;#SvgjsClipPath1207&quot;)" x="244.42" y="257.34" fill="url(#SvgjsPattern1208)" transform="rotate(267.71, 375.22, 388.14)"></rect><circle r="90.80466800794551" cx="1293.15" cy="70.71" fill="rgba(52, 100, 224, 1)"></circle><rect width="276" height="276" clip-path="url(&quot;#SvgjsClipPath1209&quot;)" x="1191.57" y="39.31" fill="url(#SvgjsPattern1210)" transform="rotate(170.65, 1329.57, 177.31)"></rect></g><defs><mask id="SvgjsMask1202"><rect width="1440" height="560" fill="#ffffff"></rect></mask><pattern x="0" y="0" width="6" height="6" patternUnits="userSpaceOnUse" id="SvgjsPattern1204"><path d="M3 1L3 5M1 3L5 3" stroke="rgba(95, 133, 231, 1)" fill="none" stroke-width="1"></path></pattern><clipPath id="SvgjsClipPath1203"><circle r="69" cx="1330.12" cy="9.57"></circle></clipPath><pattern x="0" y="0" width="11.04" height="11.04" patternUnits="userSpaceOnUse" id="SvgjsPattern1206"><path d="M0 11.04L5.52 0L11.04 11.04" stroke="rgba(95, 133, 231, 1)" fill="none"></path></pattern><clipPath id="SvgjsClipPath1205"><circle r="44.16" cx="539.81" cy="504.03"></circle></clipPath><pattern x="0" y="0" width="261.6" height="8.72" patternUnits="userSpaceOnUse" id="SvgjsPattern1208"><rect width="261.6" height="4.36" x="0" y="0" fill="rgba(232, 232, 232, 1)"></rect><rect width="261.6" height="4.36" x="0" y="4.36" fill="rgba(0, 0, 0, 0)"></rect></pattern><clipPath id="SvgjsClipPath1207"><circle r="65.4" cx="375.22" cy="388.14"></circle></clipPath><pattern x="0" y="0" width="6" height="6" patternUnits="userSpaceOnUse" id="SvgjsPattern1210"><path d="M3 1L3 5M1 3L5 3" stroke="rgba(232, 232, 232, 1)" fill="none" stroke-width="1.81"></path></pattern><clipPath id="SvgjsClipPath1209"><circle r="69" cx="1329.57" cy="177.31"></circle></clipPath></defs></svg>