<svg xmlns="http://www.w3.org/2000/svg" version="1.1" xmlns:xlink="http://www.w3.org/1999/xlink" xmlns:svgjs="http://svgjs.com/svgjs" width="1440" height="560" preserveAspectRatio="none" viewBox="0 0 1440 560"><g mask="url(&quot;#SvgjsMask1259&quot;)" fill="none"><rect width="1440" height="560" x="0" y="0" fill="rgba(251, 251, 251, 1)"></rect><rect width="249.12" height="249.12" clip-path="url(&quot;#SvgjsClipPath1260&quot;)" x="200.26" y="389.13" fill="url(#SvgjsPattern1261)" transform="rotate(318.2, 324.82, 513.69)"></rect><path d="M20.19 97.69a5.6 5.6 0 1 0-9.25-6.31 5.6 5.6 0 1 0 9.25 6.31zM6.98 88.67a5.6 5.6 0 1 0-9.26-6.31 5.6 5.6 0 1 0 9.26 6.31zM-6.24 79.66a5.6 5.6 0 1 0-9.26-6.31 5.6 5.6 0 1 0 9.26 6.31zM-19.46 70.64a5.6 5.6 0 1 0-9.26-6.31 5.6 5.6 0 1 0 9.26 6.31zM55.65 102.5a5.6 5.6 0 1 0-9.26-6.31 5.6 5.6 0 1 0 9.26 6.31zM42.43 93.48a5.6 5.6 0 1 0-9.26-6.31 5.6 5.6 0 1 0 9.26 6.31zM29.21 84.47a5.6 5.6 0 1 0-9.26-6.31 5.6 5.6 0 1 0 9.26 6.31zM15.99 75.45a5.6 5.6 0 1 0-9.25-6.31 5.6 5.6 0 1 0 9.25 6.31zM91.1 107.3a5.6 5.6 0 1 0-9.25-6.31 5.6 5.6 0 1 0 9.25 6.31zM77.88 98.29a5.6 5.6 0 1 0-9.25-6.31 5.6 5.6 0 1 0 9.25 6.31zM64.66 89.28a5.6 5.6 0 1 0-9.25-6.31 5.6 5.6 0 1 0 9.25 6.31zM51.44 80.26a5.6 5.6 0 1 0-9.25-6.31 5.6 5.6 0 1 0 9.25 6.31z" fill="rgba(95, 133, 231, 1)"></path><rect width="286.44" height="286.44" clip-path="url(&quot;#SvgjsClipPath1262&quot;)" x="287.98" y="-70.85" fill="url(#SvgjsPattern1263)" transform="rotate(354.77, 431.2, 72.37)"></rect><path d="M108.45 356.03L101.27 366.64 89.35 361.97 82.18 372.58 70.25 367.91 63.08 378.52 51.16 373.85M106.07 348.39L98.9 359 86.97 354.33 79.8 364.94 67.88 360.27 60.7 370.88 48.78 366.21" stroke="rgba(52, 100, 224, 1)" stroke-width="1.34" stroke-dasharray="4, 4"></path><circle r="73.78010835757968" cx="145.28" cy="514.97" fill="rgba(95, 133, 231, 1)"></circle><rect width="133.2" height="133.2" clip-path="url(&quot;#SvgjsClipPath1264&quot;)" x="507.43" y="38.52" fill="url(#SvgjsPattern1265)" transform="rotate(209.41, 574.03, 105.12)"></rect><rect width="288" height="288" clip-path="url(&quot;#SvgjsClipPath1266&quot;)" x="387.55" y="-58.32" fill="url(#SvgjsPattern1267)" transform="rotate(193.56, 531.55, 85.68)"></rect><path d="M1258.4699999999998 577.55 L1295.82 515.4499999999999L1230.6103800738917 499.9653800738919z" stroke="rgba(95, 133, 231, 1)" stroke-width="1.71" stroke-dasharray="3, 3"></path><rect width="96" height="96" clip-path="url(&quot;#SvgjsClipPath1268&quot;)" x="1133.86" y="361.23" fill="url(#SvgjsPattern1269)" transform="rotate(320.82, 1181.86, 409.23)"></rect><rect width="336" height="336" clip-path="url(&quot;#SvgjsClipPath1270&quot;)" x="372.67" y="133.97" fill="url(#SvgjsPattern1271)" transform="rotate(88.22, 540.67, 301.97)"></rect><rect width="119" height="119" clip-path="url(&quot;#SvgjsClipPath1272&quot;)" x="-34.18" y="85.15" fill="url(#SvgjsPattern1273)" transform="rotate(113.51, 25.32, 144.65)"></rect><path d="M1312.7600000000002 429.07 L1386.7900000000002 492.77L1387.2663046107712 423.42869538922884z" fill="rgba(232, 232, 232, 1)"></path></g><defs><mask id="SvgjsMask1259"><rect width="1440" height="560" fill="#ffffff"></rect></mask><pattern x="0" y="0" width="249.12" height="13.84" patternUnits="userSpaceOnUse" id="SvgjsPattern1261"><rect width="249.12" height="6.92" x="0" y="0" fill="rgba(52, 100, 224, 1)"></rect><rect width="249.12" height="6.92" x="0" y="6.92" fill="rgba(0, 0, 0, 0)"></rect></pattern><clipPath id="SvgjsClipPath1260"><circle r="62.28" cx="324.82" cy="513.69"></circle></clipPath><pattern x="0" y="0" width="6.82" height="6.82" patternUnits="userSpaceOnUse" id="SvgjsPattern1263"><path d="M3.41 1L3.41 5.82M1 3.41L5.82 3.41" stroke="rgba(95, 133, 231, 1)" fill="none" stroke-width="1"></path></pattern><clipPath id="SvgjsClipPath1262"><circle r="71.61" cx="431.2" cy="72.37"></circle></clipPath><pattern x="0" y="0" width="6.66" height="6.66" patternUnits="userSpaceOnUse" id="SvgjsPattern1265"><path d="M0 6.66L3.33 0L6.66 6.66" stroke="rgba(52, 100, 224, 1)" fill="none"></path></pattern><clipPath id="SvgjsClipPath1264"><circle r="33.3" cx="574.03" cy="105.12"></circle></clipPath><pattern x="0" y="0" width="6" height="6" patternUnits="userSpaceOnUse" id="SvgjsPattern1267"><path d="M0 6L3 0L6 6" stroke="rgba(232, 232, 232, 1)" fill="none"></path></pattern><clipPath id="SvgjsClipPath1266"><circle r="72" cx="531.55" cy="85.68"></circle></clipPath><pattern x="0" y="0" width="96" height="6" patternUnits="userSpaceOnUse" id="SvgjsPattern1269"><rect width="96" height="3" x="0" y="0" fill="rgba(95, 133, 231, 1)"></rect><rect width="96" height="3" x="0" y="3" fill="rgba(0, 0, 0, 0)"></rect></pattern><clipPath id="SvgjsClipPath1268"><circle r="24" cx="1181.86" cy="409.23"></circle></clipPath><pattern x="0" y="0" width="336" height="6" patternUnits="userSpaceOnUse" id="SvgjsPattern1271"><rect width="336" height="3" x="0" y="0" fill="rgba(95, 133, 231, 1)"></rect><rect width="336" height="3" x="0" y="3" fill="rgba(0, 0, 0, 0)"></rect></pattern><clipPath id="SvgjsClipPath1270"><circle r="84" cx="540.67" cy="301.97"></circle></clipPath><pattern x="0" y="0" width="119" height="11.9" patternUnits="userSpaceOnUse" id="SvgjsPattern1273"><rect width="119" height="5.95" x="0" y="0" fill="rgba(95, 133, 231, 1)"></rect><rect width="119" height="5.95" x="0" y="5.95" fill="rgba(0, 0, 0, 0)"></rect></pattern><clipPath id="SvgjsClipPath1272"><circle r="29.75" cx="25.32" cy="144.65"></circle></clipPath></defs></svg>