<svg xmlns="http://www.w3.org/2000/svg" version="1.1" xmlns:xlink="http://www.w3.org/1999/xlink" xmlns:svgjs="http://svgjs.com/svgjs" width="1440" height="560" preserveAspectRatio="none" viewBox="0 0 1440 560"><g mask="url(&quot;#SvgjsMask1211&quot;)" fill="none"><rect width="1440" height="560" x="0" y="0" fill="rgba(251, 251, 251, 1)"></rect><circle r="46.666666666666664" cx="557.64" cy="284.8" fill="rgba(52, 100, 224, 1)"></circle><path d="M378.85999999999996 289.78 L340.9 295.77L337.22349081808215 270.11849081808214z" fill="rgba(95, 133, 231, 1)"></path><path d="M908.1099999999999 556.71 L764.0699999999999 410.5L727.5255346311 592.1694653689z" fill="rgba(232, 232, 232, 1)"></path><circle r="63.127087925755646" cx="1139.21" cy="205.95" stroke="rgba(232, 232, 232, 1)" stroke-width="2.6" stroke-dasharray="3, 2"></circle><circle r="54.74834466100844" cx="362.48" cy="537.08" stroke="rgba(232, 232, 232, 1)" stroke-width="1"></circle><rect width="300" height="300" clip-path="url(&quot;#SvgjsClipPath1212&quot;)" x="405.59" y="39.59" fill="url(#SvgjsPattern1213)" transform="rotate(113.14, 555.59, 189.59)"></rect><path d="M228.85 382.27a5.6 5.6 0 1 0-7.36 8.44 5.6 5.6 0 1 0 7.36-8.44zM218.34 394.33a5.6 5.6 0 1 0-7.36 8.45 5.6 5.6 0 1 0 7.36-8.45zM207.83 406.4a5.6 5.6 0 1 0-7.36 8.44 5.6 5.6 0 1 0 7.36-8.44zM197.32 418.46a5.6 5.6 0 1 0-7.36 8.45 5.6 5.6 0 1 0 7.36-8.45zM237.8 347.63a5.6 5.6 0 1 0-7.36 8.44 5.6 5.6 0 1 0 7.36-8.44zM227.29 359.69a5.6 5.6 0 1 0-7.35 8.45 5.6 5.6 0 1 0 7.35-8.45zM216.78 371.76a5.6 5.6 0 1 0-7.35 8.44 5.6 5.6 0 1 0 7.35-8.44zM206.27 383.82a5.6 5.6 0 1 0-7.35 8.45 5.6 5.6 0 1 0 7.35-8.45zM246.76 312.99a5.6 5.6 0 1 0-7.36 8.45 5.6 5.6 0 1 0 7.36-8.45zM236.25 325.06a5.6 5.6 0 1 0-7.36 8.44 5.6 5.6 0 1 0 7.36-8.44zM225.74 337.12a5.6 5.6 0 1 0-7.36 8.45 5.6 5.6 0 1 0 7.36-8.45zM215.23 349.18a5.6 5.6 0 1 0-7.36 8.45 5.6 5.6 0 1 0 7.36-8.45z" stroke="rgba(95, 133, 231, 1)" stroke-width="1.23" stroke-dasharray="4, 4"></path><path d="M289.53 527.76L282.72 538.6 270.64 534.34 263.83 545.18 251.76 540.91 244.94 551.76 232.87 547.49M286.9 520.2L280.09 531.05 268.01 526.78 261.2 537.63 249.13 533.36 242.31 544.2 230.24 539.94M284.27 512.65L277.46 523.49 265.38 519.23 258.57 530.07 246.5 525.8 239.68 536.65 227.61 532.38" stroke="rgba(52, 100, 224, 1)" stroke-width="1.04" stroke-dasharray="3, 2"></path><rect width="276" height="276" clip-path="url(&quot;#SvgjsClipPath1214&quot;)" x="485.64" y="40.71" fill="url(#SvgjsPattern1215)" transform="rotate(29.74, 623.64, 178.71)"></rect><rect width="60" height="60" clip-path="url(&quot;#SvgjsClipPath1216&quot;)" x="777.33" y="-12.82" fill="url(#SvgjsPattern1217)" transform="rotate(194.02, 807.33, 17.18)"></rect><path d="M1430.71 44.41 L1329.84 139.18L1459.1464139964587 170.66641399645863z" fill="rgba(232, 232, 232, 1)"></path><rect width="348" height="348" clip-path="url(&quot;#SvgjsClipPath1218&quot;)" x="-34.49" y="263.81" fill="url(#SvgjsPattern1219)" transform="rotate(338.6, 139.51, 437.81)"></rect></g><defs><mask id="SvgjsMask1211"><rect width="1440" height="560" fill="#ffffff"></rect></mask><pattern x="0" y="0" width="300" height="6" patternUnits="userSpaceOnUse" id="SvgjsPattern1213"><rect width="300" height="3" x="0" y="0" fill="rgba(95, 133, 231, 1)"></rect><rect width="300" height="3" x="0" y="3" fill="rgba(0, 0, 0, 0)"></rect></pattern><clipPath id="SvgjsClipPath1212"><circle r="75" cx="555.59" cy="189.59"></circle></clipPath><pattern x="0" y="0" width="276" height="6" patternUnits="userSpaceOnUse" id="SvgjsPattern1215"><rect width="276" height="3" x="0" y="0" fill="rgba(95, 133, 231, 1)"></rect><rect width="276" height="3" x="0" y="3" fill="rgba(0, 0, 0, 0)"></rect></pattern><clipPath id="SvgjsClipPath1214"><circle r="69" cx="623.64" cy="178.71"></circle></clipPath><pattern x="0" y="0" width="60" height="6" patternUnits="userSpaceOnUse" id="SvgjsPattern1217"><rect width="60" height="3" x="0" y="0" fill="rgba(232, 232, 232, 1)"></rect><rect width="60" height="3" x="0" y="3" fill="rgba(0, 0, 0, 0)"></rect></pattern><clipPath id="SvgjsClipPath1216"><circle r="15" cx="807.33" cy="17.18"></circle></clipPath><pattern x="0" y="0" width="6" height="6" patternUnits="userSpaceOnUse" id="SvgjsPattern1219"><path d="M0 6L3 0L6 6" stroke="rgba(232, 232, 232, 1)" fill="none"></path></pattern><clipPath id="SvgjsClipPath1218"><circle r="87" cx="139.51" cy="437.81"></circle></clipPath></defs></svg>