<svg xmlns="http://www.w3.org/2000/svg" version="1.1" xmlns:xlink="http://www.w3.org/1999/xlink" xmlns:svgjs="http://svgjs.com/svgjs" width="1440" height="560" preserveAspectRatio="none" viewBox="0 0 1440 560"><g mask="url(&quot;#SvgjsMask1011&quot;)" fill="none"><rect width="1440" height="560" x="0" y="0" fill="#0e2a47"></rect><path d="M800.73 94.44L803.21 94.44L803.21 96.92L800.73 96.92z" stroke="rgba(52, 100, 224, 1)"></path><path d="M627.87 141.47 a3.62 3.62 0 1 0 7.24 0 a3.62 3.62 0 1 0 -7.24 0z" stroke="rgba(52, 100, 224, 1)"></path><path d="M583.35 372.56a14.52 14.52 0 1 0 28.84-3.38z" fill="rgba(52, 100, 224, 1)"></path><path d="M47.39 174.99L97.1 174.99L97.1 224.7L47.39 224.7z" stroke="rgba(52, 100, 224, 1)"></path><path d="M105.72 106.49 a27.06 27.06 0 1 0 54.12 0 a27.06 27.06 0 1 0 -54.12 0z" stroke="rgba(240, 244, 253, 1)"></path><path d="M1380.77 246.08L1395.83 246.08L1395.83 290.09L1380.77 290.09z" fill="rgba(240, 244, 253, 1)"></path><path d="M1274.48 453.05a42.78 42.78 0 1 0 85.08 9z" fill="rgba(52, 100, 224, 1)"></path><path d="M828.33 455.72L868.15 455.72L868.15 491.97L828.33 491.97z" stroke="rgba(240, 244, 253, 1)"></path><path d="M1300.06 208.98L1315.69 208.98L1315.69 224.61L1300.06 224.61z" fill="rgba(240, 244, 253, 1)"></path><path d="M542.98 390.05 a17.71 17.71 0 1 0 35.42 0 a17.71 17.71 0 1 0 -35.42 0z" stroke="rgba(52, 100, 224, 1)"></path><path d="M980.07 204.17L981.04 204.17L981.04 205.14L980.07 205.14z" fill="rgba(240, 244, 253, 1)"></path><path d="M1057.33 94.45L1088.91 94.45L1088.91 103.04L1057.33 103.04z" stroke="rgba(52, 100, 224, 1)"></path><path d="M20.5 250.99 a27.04 27.04 0 1 0 54.08 0 a27.04 27.04 0 1 0 -54.08 0z" fill="rgba(52, 100, 224, 1)"></path><path d="M219.8 132.77 a22.17 22.17 0 1 0 44.34 0 a22.17 22.17 0 1 0 -44.34 0z" stroke="rgba(52, 100, 224, 1)"></path><path d="M100.84 89.26L148.81 89.26L148.81 129.61L100.84 129.61z" stroke="rgba(52, 100, 224, 1)"></path><path d="M1109.43 520.68a32.48 32.48 0 1 0-20.8 61.54z" fill="rgba(240, 244, 253, 1)"></path><path d="M1186.35 141.94a22.78 22.78 0 1 0 45.44 3.4z" stroke="rgba(240, 244, 253, 1)"></path><path d="M596.16 131.86L615.73 131.86L615.73 161.26L596.16 161.26z" fill="rgba(240, 244, 253, 1)"></path><path d="M58.95 102.68L101.46 102.68L101.46 138.07L58.95 138.07z" fill="rgba(52, 100, 224, 1)"></path><path d="M-36.48 175.59a47.52 47.52 0 1 0 87.38-37.36z" stroke="rgba(240, 244, 253, 1)"></path><path d="M1362.17 285.35 a6.9 6.9 0 1 0 13.8 0 a6.9 6.9 0 1 0 -13.8 0z" fill="rgba(52, 100, 224, 1)"></path><path d="M1052.08 56.88L1077.99 56.88L1077.99 88.92L1052.08 88.92z" fill="rgba(52, 100, 224, 1)"></path><path d="M13.97 526.54L36.5 526.54L36.5 541.17L13.97 541.17z" fill="rgba(52, 100, 224, 1)"></path><path d="M457.81 122.39L511.38 122.39L511.38 175.96L457.81 175.96z" stroke="rgba(240, 244, 253, 1)"></path><path d="M775.66 416.72a31.81 31.81 0 1 0 55.58-30.96z" fill="rgba(240, 244, 253, 1)"></path><path d="M1282.4 242.78L1296.41 242.78L1296.41 256.79L1282.4 256.79z" stroke="rgba(52, 100, 224, 1)"></path><path d="M206.22 113.03 a20.9 20.9 0 1 0 41.8 0 a20.9 20.9 0 1 0 -41.8 0z" stroke="rgba(240, 244, 253, 1)"></path><path d="M999.4 30.28L1008.49 30.28L1008.49 39.37L999.4 39.37z" stroke="rgba(52, 100, 224, 1)"></path><path d="M616.54 36.53a40.99 40.99 0 1 0 80.82 13.78z" fill="rgba(240, 244, 253, 1)"></path><path d="M29.6 147.14 a22.01 22.01 0 1 0 44.02 0 a22.01 22.01 0 1 0 -44.02 0z" stroke="rgba(52, 100, 224, 1)"></path><path d="M1315.67 302.29 a20.28 20.28 0 1 0 40.56 0 a20.28 20.28 0 1 0 -40.56 0z" fill="rgba(52, 100, 224, 1)"></path><path d="M658.96 235.84 a53.55 53.55 0 1 0 107.1 0 a53.55 53.55 0 1 0 -107.1 0z" stroke="rgba(240, 244, 253, 1)"></path><path d="M568.82 367.08L621.04 367.08L621.04 419.3L568.82 419.3z" fill="rgba(52, 100, 224, 1)"></path></g><defs><mask id="SvgjsMask1011"><rect width="1440" height="560" fill="#ffffff"></rect></mask></defs></svg>