<svg xmlns="http://www.w3.org/2000/svg" version="1.1" xmlns:xlink="http://www.w3.org/1999/xlink" xmlns:svgjs="http://svgjs.com/svgjs" width="1440" height="560" preserveAspectRatio="none" viewBox="0 0 1440 560"><g mask="url(&quot;#SvgjsMask1156&quot;)" fill="none"><rect width="1440" height="560" x="0" y="0" fill="rgba(251, 251, 251, 1)"></rect><path d="M153.62 371.85a5.6 5.6 0 1 0 2 11.02 5.6 5.6 0 1 0-2-11.02zM156.47 387.59a5.6 5.6 0 1 0 2 11.02 5.6 5.6 0 1 0-2-11.02zM159.32 403.33a5.6 5.6 0 1 0 2 11.03 5.6 5.6 0 1 0-2-11.03zM162.17 419.08a5.6 5.6 0 1 0 2 11.02 5.6 5.6 0 1 0-2-11.02zM132.18 343.21a5.6 5.6 0 1 0 1.99 11.02 5.6 5.6 0 1 0-1.99-11.02zM135.03 358.95a5.6 5.6 0 1 0 1.99 11.02 5.6 5.6 0 1 0-1.99-11.02zM137.88 374.7a5.6 5.6 0 1 0 1.99 11.02 5.6 5.6 0 1 0-1.99-11.02zM140.73 390.44a5.6 5.6 0 1 0 1.99 11.02 5.6 5.6 0 1 0-1.99-11.02z" stroke="rgba(95, 133, 231, 1)" stroke-width="2.33" stroke-dasharray="4, 4"></path><rect width="121.28" height="121.28" clip-path="url(&quot;#SvgjsClipPath1157&quot;)" x="780.3" y="-38.64" fill="url(#SvgjsPattern1158)" transform="rotate(155.1, 840.94, 22)"></rect><path d="M999.46 274.53 L871.34 264.1L992.1353900031816 212.5796099968185z" fill="rgba(95, 133, 231, 1)"></path><rect width="118.4" height="118.4" clip-path="url(&quot;#SvgjsClipPath1159&quot;)" x="1.55" y="-4.41" fill="url(#SvgjsPattern1160)" transform="rotate(9.52, 60.75, 54.79)"></rect><rect width="116.2" height="116.2" clip-path="url(&quot;#SvgjsClipPath1161&quot;)" x="1047.84" y="-21.2" fill="url(#SvgjsPattern1162)" transform="rotate(117.27, 1105.94, 36.9)"></rect><path d="M984.25 507.43000000000006 L1045.27 393.85L1099.4613880504753 535.3413880504754z" stroke="rgba(52, 100, 224, 1)" stroke-width="1.24" stroke-dasharray="3, 2"></path><circle r="78.48940407328078" cx="533.85" cy="279.11" fill="rgba(232, 232, 232, 1)"></circle><circle r="46.666666666666664" cx="400.53" cy="71.91" stroke="rgba(52, 100, 224, 1)" stroke-width="2.25" stroke-dasharray="2, 2"></circle><rect width="329.8" height="329.8" clip-path="url(&quot;#SvgjsClipPath1163&quot;)" x="-93.61" y="-50.46" fill="url(#SvgjsPattern1164)" transform="rotate(144.25, 71.29, 114.44)"></rect><rect width="171.84" height="171.84" clip-path="url(&quot;#SvgjsClipPath1165&quot;)" x="302.92" y="410.63" fill="url(#SvgjsPattern1166)" transform="rotate(187.26, 388.84, 496.55)"></rect><rect width="252" height="252" clip-path="url(&quot;#SvgjsClipPath1167&quot;)" x="896.25" y="351.56" fill="url(#SvgjsPattern1168)" transform="rotate(170.45, 1022.25, 477.56)"></rect><rect width="342.72" height="342.72" clip-path="url(&quot;#SvgjsClipPath1169&quot;)" x="834.52" y="70.39" fill="url(#SvgjsPattern1170)" transform="rotate(252.29, 1005.88, 241.75)"></rect></g><defs><mask id="SvgjsMask1156"><rect width="1440" height="560" fill="#ffffff"></rect></mask><pattern x="0" y="0" width="7.58" height="7.58" patternUnits="userSpaceOnUse" id="SvgjsPattern1158"><path d="M0 7.58L3.79 0L7.58 7.58" stroke="rgba(95, 133, 231, 1)" fill="none"></path></pattern><clipPath id="SvgjsClipPath1157"><circle r="30.32" cx="840.94" cy="22"></circle></clipPath><pattern x="0" y="0" width="118.4" height="11.84" patternUnits="userSpaceOnUse" id="SvgjsPattern1160"><rect width="118.4" height="5.92" x="0" y="0" fill="rgba(52, 100, 224, 1)"></rect><rect width="118.4" height="5.92" x="0" y="5.92" fill="rgba(0, 0, 0, 0)"></rect></pattern><clipPath id="SvgjsClipPath1159"><circle r="29.6" cx="60.75" cy="54.79"></circle></clipPath><pattern x="0" y="0" width="116.2" height="11.62" patternUnits="userSpaceOnUse" id="SvgjsPattern1162"><rect width="116.2" height="5.81" x="0" y="0" fill="rgba(95, 133, 231, 1)"></rect><rect width="116.2" height="5.81" x="0" y="5.81" fill="rgba(0, 0, 0, 0)"></rect></pattern><clipPath id="SvgjsClipPath1161"><circle r="29.05" cx="1105.94" cy="36.9"></circle></clipPath><pattern x="0" y="0" width="329.8" height="9.7" patternUnits="userSpaceOnUse" id="SvgjsPattern1164"><rect width="329.8" height="4.85" x="0" y="0" fill="rgba(52, 100, 224, 1)"></rect><rect width="329.8" height="4.85" x="0" y="4.85" fill="rgba(0, 0, 0, 0)"></rect></pattern><clipPath id="SvgjsClipPath1163"><circle r="82.45" cx="71.29" cy="114.44"></circle></clipPath><pattern x="0" y="0" width="171.84" height="7.16" patternUnits="userSpaceOnUse" id="SvgjsPattern1166"><rect width="171.84" height="3.58" x="0" y="0" fill="rgba(232, 232, 232, 1)"></rect><rect width="171.84" height="3.58" x="0" y="3.58" fill="rgba(0, 0, 0, 0)"></rect></pattern><clipPath id="SvgjsClipPath1165"><circle r="42.96" cx="388.84" cy="496.55"></circle></clipPath><pattern x="0" y="0" width="6" height="6" patternUnits="userSpaceOnUse" id="SvgjsPattern1168"><path d="M0 6L3 0L6 6" stroke="rgba(232, 232, 232, 1)" fill="none"></path></pattern><clipPath id="SvgjsClipPath1167"><circle r="63" cx="1022.25" cy="477.56"></circle></clipPath><pattern x="0" y="0" width="8.16" height="8.16" patternUnits="userSpaceOnUse" id="SvgjsPattern1170"><path d="M0 8.16L4.08 0L8.16 8.16" stroke="rgba(232, 232, 232, 1)" fill="none"></path></pattern><clipPath id="SvgjsClipPath1169"><circle r="85.68" cx="1005.88" cy="241.75"></circle></clipPath></defs></svg>