<svg xmlns="http://www.w3.org/2000/svg" version="1.1" xmlns:xlink="http://www.w3.org/1999/xlink" xmlns:svgjs="http://svgjs.com/svgjs" width="1440" height="560" preserveAspectRatio="none" viewBox="0 0 1440 560"><g mask="url(&quot;#SvgjsMask1007&quot;)" fill="none"><rect width="1440" height="560" x="0" y="0" fill="#0e2a47"></rect><path d="M494.48 97.83a33.03 33.03 0 1 0-25.24-61.05z" fill="rgba(240, 244, 253, 1)"></path><path d="M762.72 310.42a34.23 34.23 0 1 0-54.4 41.55z" fill="rgba(52, 100, 224, 1)"></path><path d="M317.96 436.73 a29.03 29.03 0 1 0 58.06 0 a29.03 29.03 0 1 0 -58.06 0z" stroke="rgba(240, 244, 253, 1)"></path><path d="M188.65 414.61 a26.04 26.04 0 1 0 52.08 0 a26.04 26.04 0 1 0 -52.08 0z" fill="rgba(52, 100, 224, 1)"></path><path d="M433.37 242.55L433.93 242.55L433.93 282.93L433.37 282.93z" stroke="rgba(52, 100, 224, 1)"></path><path d="M46.85 45.5 a19.91 19.91 0 1 0 39.82 0 a19.91 19.91 0 1 0 -39.82 0z" fill="rgba(240, 244, 253, 1)"></path><path d="M492.33 68.2a49.53 49.53 0 1 0-97.45-17.82z" stroke="rgba(52, 100, 224, 1)"></path><path d="M701.24 350.25L725.72 350.25L725.72 374.73L701.24 374.73z" fill="rgba(52, 100, 224, 1)"></path><path d="M459.18 408.65L479.22 408.65L479.22 441.21L459.18 441.21z" fill="rgba(240, 244, 253, 1)"></path><path d="M1028.57 206.89 a32.78 32.78 0 1 0 65.56 0 a32.78 32.78 0 1 0 -65.56 0z" stroke="rgba(240, 244, 253, 1)"></path><path d="M636.5 466.33L667.43 466.33L667.43 497.26L636.5 497.26z" stroke="rgba(240, 244, 253, 1)"></path><path d="M183.98 472.43a36.76 36.76 0 1 0-69.45 24.11z" stroke="rgba(240, 244, 253, 1)"></path><path d="M617.19 464.73a24.42 24.42 0 1 0-46.68-14.34z" fill="rgba(52, 100, 224, 1)"></path><path d="M335.03 181.99 a19.37 19.37 0 1 0 38.74 0 a19.37 19.37 0 1 0 -38.74 0z" stroke="rgba(240, 244, 253, 1)"></path><path d="M380.92 163.34L424.6 163.34L424.6 207.02L380.92 207.02z" fill="rgba(52, 100, 224, 1)"></path><path d="M828.83 353.98L856.27 353.98L856.27 381.42L828.83 381.42z" fill="rgba(52, 100, 224, 1)"></path><path d="M61.92 527.28 a34.46 34.46 0 1 0 68.92 0 a34.46 34.46 0 1 0 -68.92 0z" fill="rgba(240, 244, 253, 1)"></path><path d="M1239.85 135.31L1277.48 135.31L1277.48 167.6L1239.85 167.6z" fill="rgba(52, 100, 224, 1)"></path><path d="M1318.79 514.09a14.96 14.96 0 1 0-26.5 13.9z" stroke="rgba(240, 244, 253, 1)"></path><path d="M831.3 429.07a32.45 32.45 0 1 0-29.51-57.8z" fill="rgba(52, 100, 224, 1)"></path><path d="M529.58 503.55L538.85 503.55L538.85 512.82L529.58 512.82z" fill="rgba(52, 100, 224, 1)"></path><path d="M1133.94 73.72a2.49 2.49 0 1 0 4.02 2.94z" stroke="rgba(52, 100, 224, 1)"></path><path d="M543.76 525.39L565.37 525.39L565.37 547L543.76 547z" fill="rgba(52, 100, 224, 1)"></path><path d="M225.08 129.29 a38.6 38.6 0 1 0 77.2 0 a38.6 38.6 0 1 0 -77.2 0z" stroke="rgba(52, 100, 224, 1)"></path><path d="M133.15 330.38L170.84 330.38L170.84 368.07L133.15 368.07z" stroke="rgba(52, 100, 224, 1)"></path><path d="M1370.13 451.9 a45.54 45.54 0 1 0 91.08 0 a45.54 45.54 0 1 0 -91.08 0z" fill="rgba(52, 100, 224, 1)"></path><path d="M1168.75 171.37 a19.59 19.59 0 1 0 39.18 0 a19.59 19.59 0 1 0 -39.18 0z" fill="rgba(52, 100, 224, 1)"></path><path d="M1089.18 551.02 a6.43 6.43 0 1 0 12.86 0 a6.43 6.43 0 1 0 -12.86 0z" fill="rgba(240, 244, 253, 1)"></path><path d="M1021.84 545.33 a3.47 3.47 0 1 0 6.94 0 a3.47 3.47 0 1 0 -6.94 0z" fill="rgba(52, 100, 224, 1)"></path><path d="M781.94 438.05L792.49 438.05L792.49 466.53L781.94 466.53z" stroke="rgba(240, 244, 253, 1)"></path><path d="M462.11 227L481.63 227L481.63 235.7L462.11 235.7z" stroke="rgba(52, 100, 224, 1)"></path><path d="M661.64 559.05a7.09 7.09 0 1 0 11.33-8.52z" stroke="rgba(240, 244, 253, 1)"></path><path d="M5.81 455.86L18.41 455.86L18.41 507.76L5.81 507.76z" stroke="rgba(52, 100, 224, 1)"></path></g><defs><mask id="SvgjsMask1007"><rect width="1440" height="560" fill="#ffffff"></rect></mask></defs></svg>