<svg xmlns="http://www.w3.org/2000/svg" version="1.1" xmlns:xlink="http://www.w3.org/1999/xlink" xmlns:svgjs="http://svgjs.com/svgjs" width="1440" height="560" preserveAspectRatio="none" viewBox="0 0 1440 560"><g mask="url(&quot;#SvgjsMask1250&quot;)" fill="none"><rect width="1440" height="560" x="0" y="0" fill="rgba(251, 251, 251, 1)"></rect><rect width="69" height="69" clip-path="url(&quot;#SvgjsClipPath1251&quot;)" x="241.91" y="507.33" fill="url(#SvgjsPattern1252)" transform="rotate(13.54, 276.41, 541.83)"></rect><circle r="46.666666666666664" cx="664.91" cy="236" stroke="rgba(232, 232, 232, 1)" stroke-width="2.93"></circle><path d="M1369.04 201.34L1377.01 191.32 1388.54 196.89 1396.51 186.87 1408.04 192.44 1416 182.42 1427.53 187.99" stroke="rgba(52, 100, 224, 1)" stroke-width="1.33" stroke-dasharray="4, 4"></path><rect width="300" height="300" clip-path="url(&quot;#SvgjsClipPath1253&quot;)" x="-43.58" y="403.48" fill="url(#SvgjsPattern1254)" transform="rotate(133.39, 106.42, 553.48)"></rect><path d="M1207.9 494.38a5.6 5.6 0 1 0 9.82 5.39 5.6 5.6 0 1 0-9.82-5.39zM1221.92 502.09a5.6 5.6 0 1 0 9.82 5.39 5.6 5.6 0 1 0-9.82-5.39zM1235.95 509.79a5.6 5.6 0 1 0 9.81 5.39 5.6 5.6 0 1 0-9.81-5.39zM1249.97 517.49a5.6 5.6 0 1 0 9.82 5.39 5.6 5.6 0 1 0-9.82-5.39zM1172.15 493a5.6 5.6 0 1 0 9.82 5.39 5.6 5.6 0 1 0-9.82-5.39zM1186.17 500.7a5.6 5.6 0 1 0 9.82 5.39 5.6 5.6 0 1 0-9.82-5.39zM1200.2 508.41a5.6 5.6 0 1 0 9.81 5.39 5.6 5.6 0 1 0-9.81-5.39zM1214.22 516.11a5.6 5.6 0 1 0 9.82 5.39 5.6 5.6 0 1 0-9.82-5.39zM1136.4 491.62a5.6 5.6 0 1 0 9.82 5.39 5.6 5.6 0 1 0-9.82-5.39zM1150.42 499.32a5.6 5.6 0 1 0 9.82 5.39 5.6 5.6 0 1 0-9.82-5.39zM1164.45 507.02a5.6 5.6 0 1 0 9.81 5.4 5.6 5.6 0 1 0-9.81-5.4zM1178.47 514.73a5.6 5.6 0 1 0 9.82 5.39 5.6 5.6 0 1 0-9.82-5.39z" stroke="rgba(95, 133, 231, 1)" stroke-width="2.73"></path><path d="M976.01 468.94L987.59 463.47 995.47 473.57 1007.05 468.09 1014.93 478.19 1026.51 472.72 1034.39 482.81M974.16 476.72L985.74 471.25 993.62 481.35 1005.2 475.88 1013.08 485.97 1024.66 480.5 1032.54 490.6M972.31 484.51L983.89 479.04 991.77 489.13 1003.35 483.66 1011.23 493.76 1022.81 488.29 1030.69 498.38" stroke="rgba(95, 133, 231, 1)" stroke-width="1" stroke-dasharray="3, 2"></path><path d="M818.65 223.11a5.6 5.6 0 1 0-4.14 10.4 5.6 5.6 0 1 0 4.14-10.4zM812.73 237.97a5.6 5.6 0 1 0-4.14 10.41 5.6 5.6 0 1 0 4.14-10.41zM806.81 252.84a5.6 5.6 0 1 0-4.14 10.4 5.6 5.6 0 1 0 4.14-10.4zM800.89 267.7a5.6 5.6 0 1 0-4.14 10.41 5.6 5.6 0 1 0 4.14-10.41zM815.63 187.46a5.6 5.6 0 1 0-4.14 10.4 5.6 5.6 0 1 0 4.14-10.4zM809.71 202.32a5.6 5.6 0 1 0-4.14 10.41 5.6 5.6 0 1 0 4.14-10.41zM803.79 217.19a5.6 5.6 0 1 0-4.14 10.4 5.6 5.6 0 1 0 4.14-10.4zM797.87 232.05a5.6 5.6 0 1 0-4.15 10.41 5.6 5.6 0 1 0 4.15-10.41z" stroke="rgba(95, 133, 231, 1)" stroke-width="2.5"></path><rect width="322" height="322" clip-path="url(&quot;#SvgjsClipPath1255&quot;)" x="280.46" y="47.41" fill="url(#SvgjsPattern1256)" transform="rotate(43.88, 441.46, 208.41)"></rect><path d="M493.3 68.11L490.02 55.73 501.38 49.81 498.1 37.44 509.46 31.52 506.18 19.14 517.53 13.22M500.62 71.34L497.34 58.96 508.7 53.05 505.42 40.67 516.78 34.75 513.5 22.37 524.85 16.45" stroke="rgba(95, 133, 231, 1)" stroke-width="2.23" stroke-dasharray="4, 4"></path><circle r="50.04358959492311" cx="26.26" cy="462.75" fill="rgba(232, 232, 232, 1)"></circle><circle r="46.666666666666664" cx="1393.62" cy="295.58" fill="rgba(95, 133, 231, 1)"></circle><rect width="207.48" height="207.48" clip-path="url(&quot;#SvgjsClipPath1257&quot;)" x="1047.97" y="69.17" fill="url(#SvgjsPattern1258)" transform="rotate(281.4, 1151.71, 172.91)"></rect></g><defs><mask id="SvgjsMask1250"><rect width="1440" height="560" fill="#ffffff"></rect></mask><pattern x="0" y="0" width="6.9" height="6.9" patternUnits="userSpaceOnUse" id="SvgjsPattern1252"><path d="M0 6.9L3.45 0L6.9 6.9" stroke="rgba(95, 133, 231, 1)" fill="none"></path></pattern><clipPath id="SvgjsClipPath1251"><circle r="17.25" cx="276.41" cy="541.83"></circle></clipPath><pattern x="0" y="0" width="6" height="6" patternUnits="userSpaceOnUse" id="SvgjsPattern1254"><path d="M0 6L3 0L6 6" stroke="rgba(95, 133, 231, 1)" fill="none"></path></pattern><clipPath id="SvgjsClipPath1253"><circle r="75" cx="106.42" cy="553.48"></circle></clipPath><pattern x="0" y="0" width="11.5" height="11.5" patternUnits="userSpaceOnUse" id="SvgjsPattern1256"><path d="M0 11.5L5.75 0L11.5 11.5" stroke="rgba(95, 133, 231, 1)" fill="none"></path></pattern><clipPath id="SvgjsClipPath1255"><circle r="80.5" cx="441.46" cy="208.41"></circle></clipPath><pattern x="0" y="0" width="7.98" height="7.98" patternUnits="userSpaceOnUse" id="SvgjsPattern1258"><path d="M3.99 1L3.99 6.98M1 3.99L6.98 3.99" stroke="rgba(52, 100, 224, 1)" fill="none" stroke-width="1"></path></pattern><clipPath id="SvgjsClipPath1257"><circle r="51.87" cx="1151.71" cy="172.91"></circle></clipPath></defs></svg>