<svg xmlns="http://www.w3.org/2000/svg" version="1.1" xmlns:xlink="http://www.w3.org/1999/xlink" xmlns:svgjs="http://svgjs.com/svgjs" width="1440" height="560" preserveAspectRatio="none" viewBox="0 0 1440 560"><g mask="url(&quot;#SvgjsMask1184&quot;)" fill="none"><rect width="1440" height="560" x="0" y="0" fill="rgba(251, 251, 251, 1)"></rect><path d="M1450.5300000000002 171.68 L1331.97 16.41L1271.4104705284751 213.88452947152496z" fill="rgba(52, 100, 224, 1)"></path><path d="M393.7 47.33a5.6 5.6 0 1 0 10.26-4.48 5.6 5.6 0 1 0-10.26 4.48zM408.36 40.93a5.6 5.6 0 1 0 10.26-4.49 5.6 5.6 0 1 0-10.26 4.49zM423.02 34.52a5.6 5.6 0 1 0 10.26-4.49 5.6 5.6 0 1 0-10.26 4.49zM437.68 28.11a5.6 5.6 0 1 0 10.26-4.49 5.6 5.6 0 1 0-10.26 4.49zM370.79 74.81a5.6 5.6 0 1 0 10.26-4.48 5.6 5.6 0 1 0-10.26 4.48zM385.45 68.4a5.6 5.6 0 1 0 10.26-4.48 5.6 5.6 0 1 0-10.26 4.48zM400.11 61.99a5.6 5.6 0 1 0 10.26-4.48 5.6 5.6 0 1 0-10.26 4.48zM414.77 55.59a5.6 5.6 0 1 0 10.26-4.49 5.6 5.6 0 1 0-10.26 4.49zM347.87 102.29a5.6 5.6 0 1 0 10.26-4.49 5.6 5.6 0 1 0-10.26 4.49zM362.53 95.88a5.6 5.6 0 1 0 10.27-4.49 5.6 5.6 0 1 0-10.27 4.49zM377.19 89.47a5.6 5.6 0 1 0 10.27-4.48 5.6 5.6 0 1 0-10.27 4.48zM391.85 83.06a5.6 5.6 0 1 0 10.27-4.48 5.6 5.6 0 1 0-10.27 4.48z" fill="rgba(232, 232, 232, 1)"></path><rect width="266.64" height="266.64" clip-path="url(&quot;#SvgjsClipPath1185&quot;)" x="800.67" y="232.4" fill="url(#SvgjsPattern1186)" transform="rotate(117.89, 933.99, 365.72)"></rect><rect width="276" height="276" clip-path="url(&quot;#SvgjsClipPath1187&quot;)" x="1107.85" y="254.95" fill="url(#SvgjsPattern1188)" transform="rotate(130.19, 1245.85, 392.95)"></rect><rect width="218.88" height="218.88" clip-path="url(&quot;#SvgjsClipPath1189&quot;)" x="1097.35" y="362.59" fill="url(#SvgjsPattern1190)" transform="rotate(36.03, 1206.79, 472.03)"></rect><path d="M1111.44 390.93L1115.4 378.75 1128.15 379.95 1132.11 367.77 1144.86 368.96 1148.82 356.78 1161.57 357.97M1115.83 397.62L1119.79 385.44 1132.54 386.63 1136.51 374.45 1149.26 375.64 1153.22 363.47 1165.97 364.66" stroke="rgba(95, 133, 231, 1)" stroke-width="1" stroke-dasharray="2, 2"></path><path d="M1365.04 250.61 L1308.33 220.7L1306.1877817565555 266.1522182434444z" fill="rgba(95, 133, 231, 1)"></path><path d="M1405.76 341.32L1418.52 342.31 1420.37 354.98 1433.14 355.96 1434.98 368.64 1447.75 369.62 1449.59 382.29M1400.29 347.17L1413.06 348.15 1414.91 360.83 1427.67 361.81 1429.52 374.48 1442.29 375.46 1444.13 388.14M1394.83 353.02L1407.6 354 1409.44 366.67 1422.21 367.65 1424.06 380.33 1436.83 381.31 1438.67 393.98" stroke="rgba(232, 232, 232, 1)" stroke-width="1.31"></path><path d="M1264.52 205.53 L1159.56 194.3L1260.6381792503428 151.31682074965732z" fill="rgba(95, 133, 231, 1)"></path><rect width="144" height="144" clip-path="url(&quot;#SvgjsClipPath1191&quot;)" x="-21.12" y="450.51" fill="url(#SvgjsPattern1192)" transform="rotate(269.15, 50.88, 522.51)"></rect><rect width="180" height="180" clip-path="url(&quot;#SvgjsClipPath1193&quot;)" x="1150.95" y="269.4" fill="url(#SvgjsPattern1194)" transform="rotate(293.88, 1240.95, 359.4)"></rect><rect width="298.48" height="298.48" clip-path="url(&quot;#SvgjsClipPath1195&quot;)" x="479.61" y="383.05" fill="url(#SvgjsPattern1196)" transform="rotate(140.73, 628.85, 532.29)"></rect></g><defs><mask id="SvgjsMask1184"><rect width="1440" height="560" fill="#ffffff"></rect></mask><pattern x="0" y="0" width="6.06" height="6.06" patternUnits="userSpaceOnUse" id="SvgjsPattern1186"><path d="M0 6.06L3.03 0L6.06 6.06" stroke="rgba(52, 100, 224, 1)" fill="none"></path></pattern><clipPath id="SvgjsClipPath1185"><circle r="66.66" cx="933.99" cy="365.72"></circle></clipPath><pattern x="0" y="0" width="276" height="6" patternUnits="userSpaceOnUse" id="SvgjsPattern1188"><rect width="276" height="3" x="0" y="0" fill="rgba(232, 232, 232, 1)"></rect><rect width="276" height="3" x="0" y="3" fill="rgba(0, 0, 0, 0)"></rect></pattern><clipPath id="SvgjsClipPath1187"><circle r="69" cx="1245.85" cy="392.95"></circle></clipPath><pattern x="0" y="0" width="9.12" height="9.12" patternUnits="userSpaceOnUse" id="SvgjsPattern1190"><path d="M4.56 1L4.56 8.12M1 4.56L8.12 4.56" stroke="rgba(52, 100, 224, 1)" fill="none" stroke-width="2.25"></path></pattern><clipPath id="SvgjsClipPath1189"><circle r="54.72" cx="1206.79" cy="472.03"></circle></clipPath><pattern x="0" y="0" width="144" height="6" patternUnits="userSpaceOnUse" id="SvgjsPattern1192"><rect width="144" height="3" x="0" y="0" fill="rgba(95, 133, 231, 1)"></rect><rect width="144" height="3" x="0" y="3" fill="rgba(0, 0, 0, 0)"></rect></pattern><clipPath id="SvgjsClipPath1191"><circle r="36" cx="50.88" cy="522.51"></circle></clipPath><pattern x="0" y="0" width="6" height="6" patternUnits="userSpaceOnUse" id="SvgjsPattern1194"><path d="M0 6L3 0L6 6" stroke="rgba(52, 100, 224, 1)" fill="none"></path></pattern><clipPath id="SvgjsClipPath1193"><circle r="45" cx="1240.95" cy="359.4"></circle></clipPath><pattern x="0" y="0" width="298.48" height="11.48" patternUnits="userSpaceOnUse" id="SvgjsPattern1196"><rect width="298.48" height="5.74" x="0" y="0" fill="rgba(52, 100, 224, 1)"></rect><rect width="298.48" height="5.74" x="0" y="5.74" fill="rgba(0, 0, 0, 0)"></rect></pattern><clipPath id="SvgjsClipPath1195"><circle r="74.62" cx="628.85" cy="532.29"></circle></clipPath></defs></svg>