<svg xmlns="http://www.w3.org/2000/svg" version="1.1" xmlns:xlink="http://www.w3.org/1999/xlink" xmlns:svgjs="http://svgjs.com/svgjs" width="1440" height="560" preserveAspectRatio="none" viewBox="0 0 1440 560"><g mask="url(&quot;#SvgjsMask1023&quot;)" fill="none"><rect width="1440" height="560" x="0" y="0" fill="#0e2a47"></rect><path d="M1136.48 552.1L1191.21 552.1L1191.21 602.64L1136.48 602.64z" fill="rgba(52, 100, 224, 1)"></path><path d="M1364.77 480.99a42.29 42.29 0 1 0 53.04 65.88z" fill="rgba(240, 244, 253, 1)"></path><path d="M616.49 148.21 a43.18 43.18 0 1 0 86.36 0 a43.18 43.18 0 1 0 -86.36 0z" stroke="rgba(240, 244, 253, 1)"></path><path d="M904.33 271.38L932.93 271.38L932.93 299.98L904.33 299.98z" stroke="rgba(240, 244, 253, 1)"></path><path d="M779.97 450.84a24.49 24.49 0 1 0-2.27 48.93z" stroke="rgba(52, 100, 224, 1)"></path><path d="M938.97 546.5L971.53 546.5L971.53 579.06L938.97 579.06z" stroke="rgba(52, 100, 224, 1)"></path><path d="M300.13 475.03 a3.05 3.05 0 1 0 6.1 0 a3.05 3.05 0 1 0 -6.1 0z" stroke="rgba(240, 244, 253, 1)"></path><path d="M282.39 413.61 a18.54 18.54 0 1 0 37.08 0 a18.54 18.54 0 1 0 -37.08 0z" fill="rgba(240, 244, 253, 1)"></path><path d="M45.66 51.07 a24.98 24.98 0 1 0 49.96 0 a24.98 24.98 0 1 0 -49.96 0z" fill="rgba(240, 244, 253, 1)"></path><path d="M745.78 431.22L752.42 431.22L752.42 450.35L745.78 450.35z" stroke="rgba(52, 100, 224, 1)"></path><path d="M1290.5 448.12 a45.22 45.22 0 1 0 90.44 0 a45.22 45.22 0 1 0 -90.44 0z" stroke="rgba(52, 100, 224, 1)"></path><path d="M350.42 171.92 a20.98 20.98 0 1 0 41.96 0 a20.98 20.98 0 1 0 -41.96 0z" stroke="rgba(240, 244, 253, 1)"></path><path d="M1336.84 453.62L1362.65 453.62L1362.65 459.08L1336.84 459.08z" fill="rgba(52, 100, 224, 1)"></path><path d="M463.57 454.76 a53.77 53.77 0 1 0 107.54 0 a53.77 53.77 0 1 0 -107.54 0z" stroke="rgba(52, 100, 224, 1)"></path><path d="M544.94 107.42L570.22 107.42L570.22 154L544.94 154z" stroke="rgba(52, 100, 224, 1)"></path><path d="M710.54 481.64L727.02 481.64L727.02 484.83L710.54 484.83z" stroke="rgba(240, 244, 253, 1)"></path><path d="M1192.74 453.89 a28.6 28.6 0 1 0 57.2 0 a28.6 28.6 0 1 0 -57.2 0z" fill="rgba(52, 100, 224, 1)"></path><path d="M184.73 179.47L233.66 179.47L233.66 185.92L184.73 185.92z" stroke="rgba(52, 100, 224, 1)"></path><path d="M410.93 215.75 a41.8 41.8 0 1 0 83.6 0 a41.8 41.8 0 1 0 -83.6 0z" stroke="rgba(240, 244, 253, 1)"></path><path d="M201.94 429.93L217.15 429.93L217.15 445.14L201.94 445.14z" stroke="rgba(240, 244, 253, 1)"></path><path d="M111.98 208.39L112.64 208.39L112.64 263.06L111.98 263.06z" fill="rgba(52, 100, 224, 1)"></path><path d="M124.27 20.34a40.06 40.06 0 1 0 73.12 32.74z" fill="rgba(240, 244, 253, 1)"></path><path d="M655.02 294.17 a35.07 35.07 0 1 0 70.14 0 a35.07 35.07 0 1 0 -70.14 0z" fill="rgba(52, 100, 224, 1)"></path><path d="M845.56 228.23L871.89 228.23L871.89 282.04L845.56 282.04z" fill="rgba(52, 100, 224, 1)"></path><path d="M1125.27 67.51L1139.84 67.51L1139.84 70.02L1125.27 70.02z" stroke="rgba(52, 100, 224, 1)"></path><path d="M832.68 309.31L879 309.31L879 355.63L832.68 355.63z" fill="rgba(240, 244, 253, 1)"></path><path d="M1011.9 113.98L1042.49 113.98L1042.49 144.57L1011.9 144.57z" stroke="rgba(240, 244, 253, 1)"></path><path d="M1270.36 482.89 a44.65 44.65 0 1 0 89.3 0 a44.65 44.65 0 1 0 -89.3 0z" stroke="rgba(240, 244, 253, 1)"></path><path d="M865.36 476.35a1.96 1.96 0 1 0-3.75-1.16z" fill="rgba(240, 244, 253, 1)"></path><path d="M601.18 383.81L619.49 383.81L619.49 402.12L601.18 402.12z" fill="rgba(52, 100, 224, 1)"></path><path d="M221.01 329.87a37.8 37.8 0 1 0-62.18-43z" fill="rgba(240, 244, 253, 1)"></path><path d="M998.7 420a44.34 44.34 0 1 0 28.47 83.99z" fill="rgba(240, 244, 253, 1)"></path><path d="M877.56 72.69L898.98 72.69L898.98 94.11L877.56 94.11z" stroke="rgba(52, 100, 224, 1)"></path></g><defs><mask id="SvgjsMask1023"><rect width="1440" height="560" fill="#ffffff"></rect></mask></defs></svg>