<svg xmlns="http://www.w3.org/2000/svg" version="1.1" xmlns:xlink="http://www.w3.org/1999/xlink" xmlns:svgjs="http://svgjs.com/svgjs" width="1440" height="560" preserveAspectRatio="none" viewBox="0 0 1440 560"><g mask="url(&quot;#SvgjsMask1020&quot;)" fill="none"><rect width="1440" height="560" x="0" y="0" fill="#0e2a47"></rect><path d="M741.9 254.97L765.23 254.97L765.23 278.3L741.9 278.3z" stroke="rgba(52, 100, 224, 1)"></path><path d="M713.34 481.25a6.89 6.89 0 1 0 11.96-6.84z" fill="rgba(52, 100, 224, 1)"></path><path d="M1360.41 319.15 a48.99 48.99 0 1 0 97.98 0 a48.99 48.99 0 1 0 -97.98 0z" stroke="rgba(52, 100, 224, 1)"></path><path d="M818.05 546.75 a46.39 46.39 0 1 0 92.78 0 a46.39 46.39 0 1 0 -92.78 0z" stroke="rgba(240, 244, 253, 1)"></path><path d="M1148.07 78.75L1168.15 78.75L1168.15 98.83L1148.07 98.83z" fill="rgba(240, 244, 253, 1)"></path><path d="M1184.12 416.49L1212.85 416.49L1212.85 445.22L1184.12 445.22z" stroke="rgba(240, 244, 253, 1)"></path><path d="M645.77 93.37 a18.42 18.42 0 1 0 36.84 0 a18.42 18.42 0 1 0 -36.84 0z" fill="rgba(240, 244, 253, 1)"></path><path d="M72.78 307.16 a52.36 52.36 0 1 0 104.72 0 a52.36 52.36 0 1 0 -104.72 0z" stroke="rgba(240, 244, 253, 1)"></path><path d="M1293.69 435.49L1302.49 435.49L1302.49 444.29L1293.69 444.29z" fill="rgba(240, 244, 253, 1)"></path><path d="M866.77 187.61 a28.34 28.34 0 1 0 56.68 0 a28.34 28.34 0 1 0 -56.68 0z" stroke="rgba(240, 244, 253, 1)"></path><path d="M61.38 489.67 a12.83 12.83 0 1 0 25.66 0 a12.83 12.83 0 1 0 -25.66 0z" stroke="rgba(52, 100, 224, 1)"></path><path d="M1003.05 33.45a0.02 0.02 0 1 0-0.04-0.01z" stroke="rgba(52, 100, 224, 1)"></path><path d="M646.23 40.66L655.13 40.66L655.13 49.56L646.23 49.56z" fill="rgba(240, 244, 253, 1)"></path><path d="M468.3 548.3a22.92 22.92 0 1 0-8.11-45.11z" stroke="rgba(52, 100, 224, 1)"></path><path d="M994.47 91.53 a20.75 20.75 0 1 0 41.5 0 a20.75 20.75 0 1 0 -41.5 0z" fill="rgba(240, 244, 253, 1)"></path><path d="M1043.14 91.14L1055.64 91.14L1055.64 109.75L1043.14 109.75z" fill="rgba(240, 244, 253, 1)"></path><path d="M1373.21 312.34L1400.59 312.34L1400.59 339.72L1373.21 339.72z" fill="rgba(52, 100, 224, 1)"></path><path d="M936.66 298.8a23.32 23.32 0 1 0 31 34.85z" stroke="rgba(52, 100, 224, 1)"></path><path d="M1079.39 331.42a20.18 20.18 0 1 0 7.48-39.66z" stroke="rgba(240, 244, 253, 1)"></path><path d="M559.87 186.35 a34.28 34.28 0 1 0 68.56 0 a34.28 34.28 0 1 0 -68.56 0z" fill="rgba(52, 100, 224, 1)"></path><path d="M879.81 516.59a30.15 30.15 0 1 0 28.96 52.89z" fill="rgba(240, 244, 253, 1)"></path><path d="M861.04 501.32L861.05 501.32L861.05 501.33L861.04 501.33z" stroke="rgba(52, 100, 224, 1)"></path><path d="M203.65 307.79 a17.22 17.22 0 1 0 34.44 0 a17.22 17.22 0 1 0 -34.44 0z" stroke="rgba(240, 244, 253, 1)"></path><path d="M773.05 264.88L775.24 264.88L775.24 267.07L773.05 267.07z" stroke="rgba(240, 244, 253, 1)"></path><path d="M859.91 513.23L880.22 513.23L880.22 535.35L859.91 535.35z" stroke="rgba(240, 244, 253, 1)"></path><path d="M436.51 58.89 a12.32 12.32 0 1 0 24.64 0 a12.32 12.32 0 1 0 -24.64 0z" stroke="rgba(52, 100, 224, 1)"></path><path d="M914.47 347.74L968.4 347.74L968.4 402.91L914.47 402.91z" fill="rgba(240, 244, 253, 1)"></path><path d="M109.71 267.52L130.85 267.52L130.85 288.66L109.71 288.66z" fill="rgba(52, 100, 224, 1)"></path><path d="M777.65 163.57 a24.13 24.13 0 1 0 48.26 0 a24.13 24.13 0 1 0 -48.26 0z" stroke="rgba(240, 244, 253, 1)"></path><path d="M544.23 144.15L585.78 144.15L585.78 185.7L544.23 185.7z" stroke="rgba(240, 244, 253, 1)"></path><path d="M1092.28 252.22 a27.54 27.54 0 1 0 55.08 0 a27.54 27.54 0 1 0 -55.08 0z" fill="rgba(240, 244, 253, 1)"></path><path d="M1154.81 412.85L1168.62 412.85L1168.62 413.83L1154.81 413.83z" stroke="rgba(52, 100, 224, 1)"></path><path d="M1256.97 66.34 a34.1 34.1 0 1 0 68.2 0 a34.1 34.1 0 1 0 -68.2 0z" fill="rgba(52, 100, 224, 1)"></path></g><defs><mask id="SvgjsMask1020"><rect width="1440" height="560" fill="#ffffff"></rect></mask></defs></svg>