<svg xmlns="http://www.w3.org/2000/svg" version="1.1" xmlns:xlink="http://www.w3.org/1999/xlink" xmlns:svgjs="http://svgjs.com/svgjs" width="1440" height="560" preserveAspectRatio="none" viewBox="0 0 1440 560"><g mask="url(&quot;#SvgjsMask1024&quot;)" fill="none"><rect width="1440" height="560" x="0" y="0" fill="#0e2a47"></rect><path d="M1249.95 461.88L1276.94 461.88L1276.94 488.87L1249.95 488.87z" stroke="rgba(52, 100, 224, 1)"></path><path d="M674.55 83.24L709.13 83.24L709.13 102.54L674.55 102.54z" fill="rgba(240, 244, 253, 1)"></path><path d="M948.4 1.12a47.04 47.04 0 1 0 89.05 30.36z" stroke="rgba(52, 100, 224, 1)"></path><path d="M450.84 190.99a7.46 7.46 0 1 0-12.53-8.1z" stroke="rgba(52, 100, 224, 1)"></path><path d="M1121.94 425.77L1123.4 425.77L1123.4 427.23L1121.94 427.23z" stroke="rgba(52, 100, 224, 1)"></path><path d="M1083.72 374.88L1138.61 374.88L1138.61 393.83L1083.72 393.83z" fill="rgba(240, 244, 253, 1)"></path><path d="M1094.87 336.5L1100.87 336.5L1100.87 345.2L1094.87 345.2z" stroke="rgba(52, 100, 224, 1)"></path><path d="M1219.98 529.17 a26.89 26.89 0 1 0 53.78 0 a26.89 26.89 0 1 0 -53.78 0z" fill="rgba(240, 244, 253, 1)"></path><path d="M970.28 418.42a31.42 31.42 0 1 0-1.51 62.82z" stroke="rgba(240, 244, 253, 1)"></path><path d="M157.87 271.6 a8.36 8.36 0 1 0 16.72 0 a8.36 8.36 0 1 0 -16.72 0z" fill="rgba(52, 100, 224, 1)"></path><path d="M650.04 507.5L674.06 507.5L674.06 531.52L650.04 531.52z" stroke="rgba(52, 100, 224, 1)"></path><path d="M1350.16 374.37L1402.91 374.37L1402.91 427.12L1350.16 427.12z" stroke="rgba(240, 244, 253, 1)"></path><path d="M473.34 250.64L485.95 250.64L485.95 253.72L473.34 253.72z" fill="rgba(52, 100, 224, 1)"></path><path d="M765.51 155.78 a5.93 5.93 0 1 0 11.86 0 a5.93 5.93 0 1 0 -11.86 0z" fill="rgba(52, 100, 224, 1)"></path><path d="M1137.57 23.17a11.87 11.87 0 1 0 22.21 8.39z" stroke="rgba(52, 100, 224, 1)"></path><path d="M1219.66 93.13L1241.65 93.13L1241.65 115.12L1219.66 115.12z" stroke="rgba(240, 244, 253, 1)"></path><path d="M1215.6 478.89L1226.74 478.89L1226.74 531.73L1215.6 531.73z" stroke="rgba(240, 244, 253, 1)"></path><path d="M1059.46 235.89L1076.92 235.89L1076.92 272.59L1059.46 272.59z" stroke="rgba(52, 100, 224, 1)"></path><path d="M443.71 357.48L490.75 357.48L490.75 404.52L443.71 404.52z" fill="rgba(240, 244, 253, 1)"></path><path d="M841.11 460.51 a41.85 41.85 0 1 0 83.7 0 a41.85 41.85 0 1 0 -83.7 0z" stroke="rgba(240, 244, 253, 1)"></path><path d="M1236.52 403.71 a39.75 39.75 0 1 0 79.5 0 a39.75 39.75 0 1 0 -79.5 0z" stroke="rgba(52, 100, 224, 1)"></path><path d="M115.71 283.81L143.82 283.81L143.82 296.85L115.71 296.85z" fill="rgba(240, 244, 253, 1)"></path><path d="M1030.29 414.32a34.42 34.42 0 1 0-35.87-58.75z" stroke="rgba(240, 244, 253, 1)"></path><path d="M191.21 125.86L223.14 125.86L223.14 157.79L191.21 157.79z" stroke="rgba(240, 244, 253, 1)"></path><path d="M210.15 457.64 a29 29 0 1 0 58 0 a29 29 0 1 0 -58 0z" fill="rgba(52, 100, 224, 1)"></path><path d="M6.98 337.32a14.76 14.76 0 1 0 28.76 6.62z" fill="rgba(240, 244, 253, 1)"></path><path d="M1153.01 503.42L1194.61 503.42L1194.61 545.02L1153.01 545.02z" stroke="rgba(240, 244, 253, 1)"></path><path d="M929.15 391.42L955.1 391.42L955.1 415.6L929.15 415.6z" stroke="rgba(240, 244, 253, 1)"></path><path d="M249.15 515.98L302.03 515.98L302.03 568.86L249.15 568.86z" fill="rgba(240, 244, 253, 1)"></path><path d="M1065.42 270.7 a39.95 39.95 0 1 0 79.9 0 a39.95 39.95 0 1 0 -79.9 0z" fill="rgba(52, 100, 224, 1)"></path><path d="M1097.5 551.49L1122.17 551.49L1122.17 587.5L1097.5 587.5z" fill="rgba(52, 100, 224, 1)"></path><path d="M1312.34 179.01a2.58 2.58 0 1 0-4.38-2.73z" stroke="rgba(240, 244, 253, 1)"></path><path d="M347.25 84.18L380.43 84.18L380.43 117.36L347.25 117.36z" fill="rgba(240, 244, 253, 1)"></path></g><defs><mask id="SvgjsMask1024"><rect width="1440" height="560" fill="#ffffff"></rect></mask></defs></svg>