<svg xmlns="http://www.w3.org/2000/svg" version="1.1" xmlns:xlink="http://www.w3.org/1999/xlink" xmlns:svgjs="http://svgjs.com/svgjs" width="1440" height="560" preserveAspectRatio="none" viewBox="0 0 1440 560"><g mask="url(&quot;#SvgjsMask1012&quot;)" fill="none"><rect width="1440" height="560" x="0" y="0" fill="#0e2a47"></rect><path d="M966.5 177.92L1002.02 177.92L1002.02 213.44L966.5 213.44z" fill="rgba(52, 100, 224, 1)"></path><path d="M1427.48 505.66L1449.89 505.66L1449.89 535.35L1427.48 535.35z" stroke="rgba(52, 100, 224, 1)"></path><path d="M71.51 424.26 a54.59 54.59 0 1 0 109.18 0 a54.59 54.59 0 1 0 -109.18 0z" stroke="rgba(52, 100, 224, 1)"></path><path d="M1097.78 35.41a5.5 5.5 0 1 0 10.82-1.98z" stroke="rgba(240, 244, 253, 1)"></path><path d="M545.83 1.81a40.28 40.28 0 1 0-77.18 23.09z" fill="rgba(52, 100, 224, 1)"></path><path d="M46.17 513.25L63.47 513.25L63.47 551.52L46.17 551.52z" fill="rgba(52, 100, 224, 1)"></path><path d="M1043.86 432.64a37.15 37.15 0 1 0-66.27-33.6z" stroke="rgba(240, 244, 253, 1)"></path><path d="M1166.66 523.75L1220.17 523.75L1220.17 528.69L1166.66 528.69z" stroke="rgba(52, 100, 224, 1)"></path><path d="M871.59 466.82L915.9 466.82L915.9 511.13L871.59 511.13z" fill="rgba(240, 244, 253, 1)"></path><path d="M178.05 87.77a28.96 28.96 0 1 0 28.81-50.24z" stroke="rgba(240, 244, 253, 1)"></path><path d="M234.34 135.59L263.55 135.59L263.55 164.8L234.34 164.8z" fill="rgba(240, 244, 253, 1)"></path><path d="M720.92 303.21L726.13 303.21L726.13 318.06L720.92 318.06z" fill="rgba(52, 100, 224, 1)"></path><path d="M697.08 84.76L707.82 84.76L707.82 95.5L697.08 95.5z" fill="rgba(240, 244, 253, 1)"></path><path d="M987.17 401.92 a29.05 29.05 0 1 0 58.1 0 a29.05 29.05 0 1 0 -58.1 0z" fill="rgba(52, 100, 224, 1)"></path><path d="M792.17 409.66L806.88 409.66L806.88 448.6L792.17 448.6z" stroke="rgba(240, 244, 253, 1)"></path><path d="M590.29 25.29 a25.11 25.11 0 1 0 50.22 0 a25.11 25.11 0 1 0 -50.22 0z" stroke="rgba(240, 244, 253, 1)"></path><path d="M1174.23 297.76L1223.07 297.76L1223.07 310.5L1174.23 310.5z" fill="rgba(240, 244, 253, 1)"></path><path d="M1000.5 554.48L1047.88 554.48L1047.88 583.95L1000.5 583.95z" fill="rgba(240, 244, 253, 1)"></path><path d="M1187.82 350.56a9.01 9.01 0 1 0-14.32 10.93z" fill="rgba(240, 244, 253, 1)"></path><path d="M97.6 330.32a46.45 46.45 0 1 0 34.47 86.27z" fill="rgba(52, 100, 224, 1)"></path><path d="M780.18 463.82L828.08 463.82L828.08 511.72L780.18 511.72z" fill="rgba(240, 244, 253, 1)"></path><path d="M1302.72 213.92 a51.05 51.05 0 1 0 102.1 0 a51.05 51.05 0 1 0 -102.1 0z" fill="rgba(240, 244, 253, 1)"></path><path d="M1081.35 7.07 a4.73 4.73 0 1 0 9.46 0 a4.73 4.73 0 1 0 -9.46 0z" fill="rgba(52, 100, 224, 1)"></path><path d="M774.08 245.76L825.17 245.76L825.17 296.85L774.08 296.85z" fill="rgba(240, 244, 253, 1)"></path><path d="M571.51 376.53 a30.84 30.84 0 1 0 61.68 0 a30.84 30.84 0 1 0 -61.68 0z" fill="rgba(52, 100, 224, 1)"></path><path d="M769.14 175.18L823.59 175.18L823.59 229.63L769.14 229.63z" stroke="rgba(52, 100, 224, 1)"></path><path d="M241.6 34.6a27.27 27.27 0 1 0 11.04 53.41z" stroke="rgba(240, 244, 253, 1)"></path><path d="M739.95 467.69a23.65 23.65 0 1 0-8.38 46.55z" fill="rgba(240, 244, 253, 1)"></path><path d="M1241.66 477.99a1.08 1.08 0 1 0-0.93-1.95z" stroke="rgba(52, 100, 224, 1)"></path><path d="M373.99 335.18L422.96 335.18L422.96 384.15L373.99 384.15z" stroke="rgba(52, 100, 224, 1)"></path><path d="M1183.49 400.85 a36.55 36.55 0 1 0 73.1 0 a36.55 36.55 0 1 0 -73.1 0z" stroke="rgba(52, 100, 224, 1)"></path><path d="M422.71 17.05 a45.93 45.93 0 1 0 91.86 0 a45.93 45.93 0 1 0 -91.86 0z" stroke="rgba(240, 244, 253, 1)"></path><path d="M910.8 303.09a36.49 36.49 0 1 0 72.72-6.2z" stroke="rgba(52, 100, 224, 1)"></path></g><defs><mask id="SvgjsMask1012"><rect width="1440" height="560" fill="#ffffff"></rect></mask></defs></svg>