<svg xmlns="http://www.w3.org/2000/svg" version="1.1" xmlns:xlink="http://www.w3.org/1999/xlink" xmlns:svgjs="http://svgjs.com/svgjs" width="1440" height="560" preserveAspectRatio="none" viewBox="0 0 1440 560"><g mask="url(&quot;#SvgjsMask1171&quot;)" fill="none"><rect width="1440" height="560" x="0" y="0" fill="rgba(251, 251, 251, 1)"></rect><rect width="239.52" height="239.52" clip-path="url(&quot;#SvgjsClipPath1172&quot;)" x="448.89" y="52.63" fill="url(#SvgjsPattern1173)" transform="rotate(249.28, 568.65, 172.39)"></rect><path d="M918.89 246.81a5.6 5.6 0 1 0-11.06-1.78 5.6 5.6 0 1 0 11.06 1.78zM903.09 244.26a5.6 5.6 0 1 0-11.05-1.79 5.6 5.6 0 1 0 11.05 1.79zM887.3 241.7a5.6 5.6 0 1 0-11.06-1.78 5.6 5.6 0 1 0 11.06 1.78zM871.5 239.15a5.6 5.6 0 1 0-11.05-1.79 5.6 5.6 0 1 0 11.05 1.79zM953.03 236.13a5.6 5.6 0 1 0-11.05-1.79 5.6 5.6 0 1 0 11.05 1.79zM937.24 233.58a5.6 5.6 0 1 0-11.06-1.79 5.6 5.6 0 1 0 11.06 1.79zM921.44 231.02a5.6 5.6 0 1 0-11.05-1.79 5.6 5.6 0 1 0 11.05 1.79zM905.65 228.46a5.6 5.6 0 1 0-11.06-1.78 5.6 5.6 0 1 0 11.06 1.78z" stroke="rgba(52, 100, 224, 1)" stroke-width="1.64" stroke-dasharray="2, 2"></path><rect width="312" height="312" clip-path="url(&quot;#SvgjsClipPath1174&quot;)" x="1020.99" y="-35.14" fill="url(#SvgjsPattern1175)" transform="rotate(326.32, 1176.99, 120.86)"></rect><circle r="46.666666666666664" cx="1438.06" cy="462.59" fill="rgba(95, 133, 231, 1)"></circle><rect width="180" height="180" clip-path="url(&quot;#SvgjsClipPath1176&quot;)" x="104.17" y="245.69" fill="url(#SvgjsPattern1177)" transform="rotate(357.58, 194.17, 335.69)"></rect><path d="M829.37 24.4a5.6 5.6 0 1 0-3.94-10.48 5.6 5.6 0 1 0 3.94 10.48zM823.74 9.42a5.6 5.6 0 1 0-3.93-10.48 5.6 5.6 0 1 0 3.93 10.48zM818.12-5.56a5.6 5.6 0 1 0-3.93-10.48 5.6 5.6 0 1 0 3.93 10.48zM812.5-20.54a5.6 5.6 0 1 0-3.93-10.48 5.6 5.6 0 1 0 3.93 10.48z" stroke="rgba(232, 232, 232, 1)" stroke-width="1.4" stroke-dasharray="2, 2"></path><circle r="88.62479432155145" cx="870.7" cy="461.75" fill="rgba(95, 133, 231, 1)"></circle><rect width="60" height="60" clip-path="url(&quot;#SvgjsClipPath1178&quot;)" x="753.25" y="116.57" fill="url(#SvgjsPattern1179)" transform="rotate(328.98, 783.25, 146.57)"></rect><rect width="144" height="144" clip-path="url(&quot;#SvgjsClipPath1180&quot;)" x="581.61" y="100.81" fill="url(#SvgjsPattern1181)" transform="rotate(86.21, 653.61, 172.81)"></rect><path d="M730.75 54.28L743.51 55.38 745.24 68.07 758 69.18 759.72 81.87 772.48 82.97 774.2 95.66M725.24 60.08L738 61.18 739.72 73.87 752.48 74.97 754.2 87.66 766.96 88.76 768.69 101.45M719.72 65.87L732.48 66.97 734.2 79.66 746.96 80.76 748.69 93.45 761.45 94.56 763.17 107.25" stroke="rgba(52, 100, 224, 1)" stroke-width="2.58" stroke-dasharray="2, 2"></path><rect width="60" height="60" clip-path="url(&quot;#SvgjsClipPath1182&quot;)" x="-4.83" y="163.15" fill="url(#SvgjsPattern1183)" transform="rotate(230.19, 25.17, 193.15)"></rect><path d="M1372.48 168.1a5.6 5.6 0 1 0 5.5 9.75 5.6 5.6 0 1 0-5.5-9.75zM1380.34 182.04a5.6 5.6 0 1 0 5.49 9.75 5.6 5.6 0 1 0-5.49-9.75zM1388.19 195.98a5.6 5.6 0 1 0 5.5 9.75 5.6 5.6 0 1 0-5.5-9.75zM1396.04 209.92a5.6 5.6 0 1 0 5.5 9.75 5.6 5.6 0 1 0-5.5-9.75zM1342.83 148.07a5.6 5.6 0 1 0 5.5 9.76 5.6 5.6 0 1 0-5.5-9.76zM1350.69 162.01a5.6 5.6 0 1 0 5.5 9.76 5.6 5.6 0 1 0-5.5-9.76zM1358.54 175.95a5.6 5.6 0 1 0 5.5 9.76 5.6 5.6 0 1 0-5.5-9.76zM1366.4 189.89a5.6 5.6 0 1 0 5.49 9.76 5.6 5.6 0 1 0-5.49-9.76zM1313.18 128.05a5.6 5.6 0 1 0 5.5 9.76 5.6 5.6 0 1 0-5.5-9.76zM1321.04 141.99a5.6 5.6 0 1 0 5.5 9.76 5.6 5.6 0 1 0-5.5-9.76zM1328.89 155.93a5.6 5.6 0 1 0 5.5 9.75 5.6 5.6 0 1 0-5.5-9.75zM1336.75 169.87a5.6 5.6 0 1 0 5.5 9.75 5.6 5.6 0 1 0-5.5-9.75z" stroke="rgba(52, 100, 224, 1)" stroke-width="1.23" stroke-dasharray="3, 2"></path></g><defs><mask id="SvgjsMask1171"><rect width="1440" height="560" fill="#ffffff"></rect></mask><pattern x="0" y="0" width="9.98" height="9.98" patternUnits="userSpaceOnUse" id="SvgjsPattern1173"><path d="M4.99 1L4.99 8.98M1 4.99L8.98 4.99" stroke="rgba(95, 133, 231, 1)" fill="none" stroke-width="2.57"></path></pattern><clipPath id="SvgjsClipPath1172"><circle r="59.88" cx="568.65" cy="172.39"></circle></clipPath><pattern x="0" y="0" width="312" height="6" patternUnits="userSpaceOnUse" id="SvgjsPattern1175"><rect width="312" height="3" x="0" y="0" fill="rgba(52, 100, 224, 1)"></rect><rect width="312" height="3" x="0" y="3" fill="rgba(0, 0, 0, 0)"></rect></pattern><clipPath id="SvgjsClipPath1174"><circle r="78" cx="1176.99" cy="120.86"></circle></clipPath><pattern x="0" y="0" width="6" height="6" patternUnits="userSpaceOnUse" id="SvgjsPattern1177"><path d="M0 6L3 0L6 6" stroke="rgba(232, 232, 232, 1)" fill="none"></path></pattern><clipPath id="SvgjsClipPath1176"><circle r="45" cx="194.17" cy="335.69"></circle></clipPath><pattern x="0" y="0" width="6" height="6" patternUnits="userSpaceOnUse" id="SvgjsPattern1179"><path d="M0 6L3 0L6 6" stroke="rgba(52, 100, 224, 1)" fill="none"></path></pattern><clipPath id="SvgjsClipPath1178"><circle r="15" cx="783.25" cy="146.57"></circle></clipPath><pattern x="0" y="0" width="144" height="9" patternUnits="userSpaceOnUse" id="SvgjsPattern1181"><rect width="144" height="4.5" x="0" y="0" fill="rgba(232, 232, 232, 1)"></rect><rect width="144" height="4.5" x="0" y="4.5" fill="rgba(0, 0, 0, 0)"></rect></pattern><clipPath id="SvgjsClipPath1180"><circle r="36" cx="653.61" cy="172.81"></circle></clipPath><pattern x="0" y="0" width="60" height="6" patternUnits="userSpaceOnUse" id="SvgjsPattern1183"><rect width="60" height="3" x="0" y="0" fill="rgba(52, 100, 224, 1)"></rect><rect width="60" height="3" x="0" y="3" fill="rgba(0, 0, 0, 0)"></rect></pattern><clipPath id="SvgjsClipPath1182"><circle r="15" cx="25.17" cy="193.15"></circle></clipPath></defs></svg>