<svg xmlns="http://www.w3.org/2000/svg" version="1.1" xmlns:xlink="http://www.w3.org/1999/xlink" xmlns:svgjs="http://svgjs.com/svgjs" width="1440" height="560" preserveAspectRatio="none" viewBox="0 0 1440 560"><g mask="url(&quot;#SvgjsMask1607&quot;)" fill="none"><rect width="1440" height="560" x="0" y="0" fill="rgba(251, 251, 251, 1)"></rect><path d="M450.09000000000003 287.90999999999997 L554.8 219.07999999999998L424.0150165828868 175.0650165828868z" fill="rgba(95, 133, 231, 1)"></path><rect width="60" height="60" clip-path="url(&quot;#SvgjsClipPath1608&quot;)" x="665.22" y="417.87" fill="url(#SvgjsPattern1609)" transform="rotate(279.61, 695.22, 447.87)"></rect><rect width="167.28" height="167.28" clip-path="url(&quot;#SvgjsClipPath1610&quot;)" x="372.11" y="422.88" fill="url(#SvgjsPattern1611)" transform="rotate(290.77, 455.75, 506.52)"></rect><rect width="89.28" height="89.28" clip-path="url(&quot;#SvgjsClipPath1612&quot;)" x="262.32" y="200.73" fill="url(#SvgjsPattern1613)" transform="rotate(162.62, 306.96, 245.37)"></rect><rect width="69.8" height="69.8" clip-path="url(&quot;#SvgjsClipPath1614&quot;)" x="1206.91" y="206.87" fill="url(#SvgjsPattern1615)" transform="rotate(335.51, 1241.81, 241.77)"></rect><path d="M764.23 245.39L767.09 257.87 755.54 263.4 758.4 275.88 746.85 281.42 749.71 293.9 738.16 299.43" stroke="rgba(232, 232, 232, 1)" stroke-width="1.37" stroke-dasharray="4, 4"></path><rect width="222.72" height="222.72" clip-path="url(&quot;#SvgjsClipPath1616&quot;)" x="1041.31" y="78.1" fill="url(#SvgjsPattern1617)" transform="rotate(42.84, 1152.67, 189.46)"></rect><path d="M1361.37 507.14a5.6 5.6 0 1 0 2.82-10.84 5.6 5.6 0 1 0-2.82 10.84zM1365.4 491.66a5.6 5.6 0 1 0 2.82-10.84 5.6 5.6 0 1 0-2.82 10.84zM1369.43 476.17a5.6 5.6 0 1 0 2.82-10.84 5.6 5.6 0 1 0-2.82 10.84zM1373.46 460.69a5.6 5.6 0 1 0 2.82-10.84 5.6 5.6 0 1 0-2.82 10.84zM1368.79 542.14a5.6 5.6 0 1 0 2.82-10.84 5.6 5.6 0 1 0-2.82 10.84zM1372.82 526.66a5.6 5.6 0 1 0 2.82-10.84 5.6 5.6 0 1 0-2.82 10.84zM1376.85 511.17a5.6 5.6 0 1 0 2.82-10.84 5.6 5.6 0 1 0-2.82 10.84zM1380.88 495.69a5.6 5.6 0 1 0 2.82-10.84 5.6 5.6 0 1 0-2.82 10.84z" stroke="rgba(95, 133, 231, 1)" stroke-width="2.97" stroke-dasharray="4, 4"></path><path d="M650.19 188.45999999999998 L631.29 167.19L622.549574536787 196.01542546321306z" stroke="rgba(95, 133, 231, 1)" stroke-width="1" stroke-dasharray="3, 3"></path><path d="M22.240000000000002 325.24 L111.50999999999999 311.51000000000005L127.0911255659514 378.5911255659514z" stroke="rgba(95, 133, 231, 1)" stroke-width="2.68" stroke-dasharray="3, 3"></path><circle r="61.08032026378735" cx="1019.78" cy="455.52" fill="rgba(52, 100, 224, 1)"></circle><rect width="136.6" height="136.6" clip-path="url(&quot;#SvgjsClipPath1618&quot;)" x="488.52" y="458.97" fill="url(#SvgjsPattern1619)" transform="rotate(93.7, 556.82, 527.27)"></rect></g><defs><mask id="SvgjsMask1607"><rect width="1440" height="560" fill="#ffffff"></rect></mask><pattern x="0" y="0" width="6" height="6" patternUnits="userSpaceOnUse" id="SvgjsPattern1609"><path d="M0 6L3 0L6 6" stroke="rgba(52, 100, 224, 1)" fill="none"></path></pattern><clipPath id="SvgjsClipPath1608"><circle r="15" cx="695.22" cy="447.87"></circle></clipPath><pattern x="0" y="0" width="167.28" height="13.94" patternUnits="userSpaceOnUse" id="SvgjsPattern1611"><rect width="167.28" height="6.97" x="0" y="0" fill="rgba(232, 232, 232, 1)"></rect><rect width="167.28" height="6.97" x="0" y="6.97" fill="rgba(0, 0, 0, 0)"></rect></pattern><clipPath id="SvgjsClipPath1610"><circle r="41.82" cx="455.75" cy="506.52"></circle></clipPath><pattern x="0" y="0" width="89.28" height="7.44" patternUnits="userSpaceOnUse" id="SvgjsPattern1613"><rect width="89.28" height="3.72" x="0" y="0" fill="rgba(95, 133, 231, 1)"></rect><rect width="89.28" height="3.72" x="0" y="3.72" fill="rgba(0, 0, 0, 0)"></rect></pattern><clipPath id="SvgjsClipPath1612"><circle r="22.32" cx="306.96" cy="245.37"></circle></clipPath><pattern x="0" y="0" width="69.8" height="6.98" patternUnits="userSpaceOnUse" id="SvgjsPattern1615"><rect width="69.8" height="3.49" x="0" y="0" fill="rgba(232, 232, 232, 1)"></rect><rect width="69.8" height="3.49" x="0" y="3.49" fill="rgba(0, 0, 0, 0)"></rect></pattern><clipPath id="SvgjsClipPath1614"><circle r="17.45" cx="1241.81" cy="241.77"></circle></clipPath><pattern x="0" y="0" width="13.92" height="13.92" patternUnits="userSpaceOnUse" id="SvgjsPattern1617"><path d="M6.96 1L6.96 12.92M1 6.96L12.92 6.96" stroke="rgba(95, 133, 231, 1)" fill="none" stroke-width="1.1"></path></pattern><clipPath id="SvgjsClipPath1616"><circle r="55.68" cx="1152.67" cy="189.46"></circle></clipPath><pattern x="0" y="0" width="136.6" height="13.66" patternUnits="userSpaceOnUse" id="SvgjsPattern1619"><rect width="136.6" height="6.83" x="0" y="0" fill="rgba(52, 100, 224, 1)"></rect><rect width="136.6" height="6.83" x="0" y="6.83" fill="rgba(0, 0, 0, 0)"></rect></pattern><clipPath id="SvgjsClipPath1618"><circle r="34.15" cx="556.82" cy="527.27"></circle></clipPath></defs></svg>