<svg xmlns="http://www.w3.org/2000/svg" version="1.1" xmlns:xlink="http://www.w3.org/1999/xlink" xmlns:svgjs="http://svgjs.com/svgjs" width="1440" height="560" preserveAspectRatio="none" viewBox="0 0 1440 560"><g mask="url(&quot;#SvgjsMask1005&quot;)" fill="none"><rect width="1440" height="560" x="0" y="0" fill="#0e2a47"></rect><path d="M422.48 64.41 a15.09 15.09 0 1 0 30.18 0 a15.09 15.09 0 1 0 -30.18 0z" stroke="rgba(52, 100, 224, 1)"></path><path d="M428.52 251.73L471.18 251.73L471.18 288.38L428.52 288.38z" fill="rgba(52, 100, 224, 1)"></path><path d="M853.32 218.27L906.03 218.27L906.03 221.44L853.32 221.44z" fill="rgba(240, 244, 253, 1)"></path><path d="M1061.71 325.91a47.61 47.61 0 1 0-69.6 64.99z" fill="rgba(240, 244, 253, 1)"></path><path d="M14.12 239.69L21.54 239.69L21.54 247.11L14.12 247.11z" fill="rgba(52, 100, 224, 1)"></path><path d="M1062.32 13.43L1109.57 13.43L1109.57 24.9L1062.32 24.9z" stroke="rgba(240, 244, 253, 1)"></path><path d="M595.27 439.8L601.82 439.8L601.82 487.51L595.27 487.51z" fill="rgba(52, 100, 224, 1)"></path><path d="M1064.12 285.9 a44.9 44.9 0 1 0 89.8 0 a44.9 44.9 0 1 0 -89.8 0z" fill="rgba(52, 100, 224, 1)"></path><path d="M489.19 477.15L506.18 477.15L506.18 494.14L489.19 494.14z" stroke="rgba(52, 100, 224, 1)"></path><path d="M580.09 3.79L604.2 3.79L604.2 27.9L580.09 27.9z" fill="rgba(240, 244, 253, 1)"></path><path d="M796.32 452.79L813.05 452.79L813.05 469.52L796.32 469.52z" stroke="rgba(240, 244, 253, 1)"></path><path d="M617.27 115.73 a7.05 7.05 0 1 0 14.1 0 a7.05 7.05 0 1 0 -14.1 0z" stroke="rgba(240, 244, 253, 1)"></path><path d="M189.59 274.32L243.68 274.32L243.68 328.41L189.59 328.41z" stroke="rgba(240, 244, 253, 1)"></path><path d="M1238.83 449.04L1266.04 449.04L1266.04 476.25L1238.83 476.25z" fill="rgba(52, 100, 224, 1)"></path><path d="M1149.54 194.8a23.03 23.03 0 1 0-15.95 43.21z" stroke="rgba(240, 244, 253, 1)"></path><path d="M171.6 263.57 a16.08 16.08 0 1 0 32.16 0 a16.08 16.08 0 1 0 -32.16 0z" stroke="rgba(240, 244, 253, 1)"></path><path d="M83.23 84.8 a4 4 0 1 0 8 0 a4 4 0 1 0 -8 0z" stroke="rgba(240, 244, 253, 1)"></path><path d="M1188.01 223.81 a3.73 3.73 0 1 0 7.46 0 a3.73 3.73 0 1 0 -7.46 0z" fill="rgba(52, 100, 224, 1)"></path><path d="M1150.91 207.97L1168.72 207.97L1168.72 218.09L1150.91 218.09z" stroke="rgba(52, 100, 224, 1)"></path><path d="M815.55 463.42L859.71 463.42L859.71 516.3L815.55 516.3z" fill="rgba(52, 100, 224, 1)"></path><path d="M455.82 383.4L469.42 383.4L469.42 391.71L455.82 391.71z" stroke="rgba(52, 100, 224, 1)"></path><path d="M807.7 332.22L852.87 332.22L852.87 332.9L807.7 332.9z" fill="rgba(240, 244, 253, 1)"></path><path d="M1365.01 344.22L1402.71 344.22L1402.71 386.82L1365.01 386.82z" fill="rgba(240, 244, 253, 1)"></path><path d="M486.21 238.43 a11.81 11.81 0 1 0 23.62 0 a11.81 11.81 0 1 0 -23.62 0z" stroke="rgba(240, 244, 253, 1)"></path><path d="M1209.18 378.37L1223.56 378.37L1223.56 392.75L1209.18 392.75z" fill="rgba(52, 100, 224, 1)"></path><path d="M358.4 333.09L405.94 333.09L405.94 380.63L358.4 380.63z" fill="rgba(52, 100, 224, 1)"></path><path d="M1423.62 511.37L1429.7 511.37L1429.7 517.45L1423.62 517.45z" fill="rgba(52, 100, 224, 1)"></path><path d="M68.84 244.94L105.54 244.94L105.54 281.64L68.84 281.64z" fill="rgba(240, 244, 253, 1)"></path><path d="M1192.82 171.95L1225.06 171.95L1225.06 204.19L1192.82 204.19z" fill="rgba(240, 244, 253, 1)"></path><path d="M1409.02 216.39a31.4 31.4 0 1 0 46.87 41.8z" stroke="rgba(240, 244, 253, 1)"></path><path d="M586.86 83.89a6.95 6.95 0 1 0-8.45 11.04z" fill="rgba(240, 244, 253, 1)"></path><path d="M143.77 305.1 a40.78 40.78 0 1 0 81.56 0 a40.78 40.78 0 1 0 -81.56 0z" stroke="rgba(52, 100, 224, 1)"></path><path d="M1002.38 325.88L1025.6 325.88L1025.6 349.1L1002.38 349.1z" fill="rgba(240, 244, 253, 1)"></path></g><defs><mask id="SvgjsMask1005"><rect width="1440" height="560" fill="#ffffff"></rect></mask></defs></svg>