<svg xmlns="http://www.w3.org/2000/svg" version="1.1" xmlns:xlink="http://www.w3.org/1999/xlink" xmlns:svgjs="http://svgjs.com/svgjs" width="1440" height="560" preserveAspectRatio="none" viewBox="0 0 1440 560"><g mask="url(&quot;#SvgjsMask1128&quot;)" fill="none"><rect width="1440" height="560" x="0" y="0" fill="rgba(251, 251, 251, 1)"></rect><circle r="46.666666666666664" cx="958.93" cy="96.38" fill="rgba(232, 232, 232, 1)"></circle><path d="M403.99 545.84a5.6 5.6 0 1 0 3.3 10.71 5.6 5.6 0 1 0-3.3-10.71zM408.7 561.14a5.6 5.6 0 1 0 3.29 10.7 5.6 5.6 0 1 0-3.29-10.7zM413.4 576.43a5.6 5.6 0 1 0 3.29 10.7 5.6 5.6 0 1 0-3.29-10.7zM418.11 591.72a5.6 5.6 0 1 0 3.29 10.71 5.6 5.6 0 1 0-3.29-10.71zM379.29 519.96a5.6 5.6 0 1 0 3.29 10.71 5.6 5.6 0 1 0-3.29-10.71zM383.99 535.25a5.6 5.6 0 1 0 3.3 10.71 5.6 5.6 0 1 0-3.3-10.71zM388.7 550.55a5.6 5.6 0 1 0 3.29 10.7 5.6 5.6 0 1 0-3.29-10.7zM393.4 565.84a5.6 5.6 0 1 0 3.3 10.7 5.6 5.6 0 1 0-3.3-10.7zM354.59 494.08a5.6 5.6 0 1 0 3.29 10.71 5.6 5.6 0 1 0-3.29-10.71zM359.29 509.37a5.6 5.6 0 1 0 3.3 10.71 5.6 5.6 0 1 0-3.3-10.71zM364 524.67a5.6 5.6 0 1 0 3.29 10.7 5.6 5.6 0 1 0-3.29-10.7zM368.7 539.96a5.6 5.6 0 1 0 3.3 10.7 5.6 5.6 0 1 0-3.3-10.7z" stroke="rgba(95, 133, 231, 1)" stroke-width="1" stroke-dasharray="3, 2"></path><rect width="264" height="264" clip-path="url(&quot;#SvgjsClipPath1129&quot;)" x="861.19" y="276.8" fill="url(#SvgjsPattern1130)" transform="rotate(151.29, 993.19, 408.8)"></rect><rect width="204.48" height="204.48" clip-path="url(&quot;#SvgjsClipPath1131&quot;)" x="599.11" y="456.21" fill="url(#SvgjsPattern1132)" transform="rotate(27.37, 701.35, 558.45)"></rect><circle r="69.22005185835891" cx="711.02" cy="437.79" stroke="rgba(52, 100, 224, 1)" stroke-width="1.56" stroke-dasharray="3, 2"></circle><rect width="96" height="96" clip-path="url(&quot;#SvgjsClipPath1133&quot;)" x="447.42" y="11.17" fill="url(#SvgjsPattern1134)" transform="rotate(60.47, 495.42, 59.17)"></rect><rect width="348" height="348" clip-path="url(&quot;#SvgjsClipPath1135&quot;)" x="750.91" y="165.96" fill="url(#SvgjsPattern1136)" transform="rotate(242.69, 924.91, 339.96)"></rect><path d="M729.67 300.77a5.6 5.6 0 1 0 7-8.74 5.6 5.6 0 1 0-7 8.74zM739.67 288.28a5.6 5.6 0 1 0 7.01-8.74 5.6 5.6 0 1 0-7.01 8.74zM749.68 275.79a5.6 5.6 0 1 0 7-8.74 5.6 5.6 0 1 0-7 8.74zM759.68 263.31a5.6 5.6 0 1 0 7-8.74 5.6 5.6 0 1 0-7 8.74z" fill="rgba(52, 100, 224, 1)"></path><path d="M325.51 306.63a5.6 5.6 0 1 0 11.12-1.34 5.6 5.6 0 1 0-11.12 1.34zM341.4 304.72a5.6 5.6 0 1 0 11.12-1.34 5.6 5.6 0 1 0-11.12 1.34zM357.28 302.81a5.6 5.6 0 1 0 11.12-1.34 5.6 5.6 0 1 0-11.12 1.34zM373.17 300.89a5.6 5.6 0 1 0 11.12-1.34 5.6 5.6 0 1 0-11.12 1.34zM295.66 326.35a5.6 5.6 0 1 0 11.11-1.34 5.6 5.6 0 1 0-11.11 1.34zM311.54 324.43a5.6 5.6 0 1 0 11.12-1.34 5.6 5.6 0 1 0-11.12 1.34zM327.43 322.52a5.6 5.6 0 1 0 11.12-1.34 5.6 5.6 0 1 0-11.12 1.34zM343.31 320.6a5.6 5.6 0 1 0 11.12-1.33 5.6 5.6 0 1 0-11.12 1.33zM265.8 346.06a5.6 5.6 0 1 0 11.12-1.34 5.6 5.6 0 1 0-11.12 1.34zM281.68 344.15a5.6 5.6 0 1 0 11.12-1.34 5.6 5.6 0 1 0-11.12 1.34zM297.57 342.23a5.6 5.6 0 1 0 11.12-1.34 5.6 5.6 0 1 0-11.12 1.34zM313.45 340.32a5.6 5.6 0 1 0 11.12-1.34 5.6 5.6 0 1 0-11.12 1.34z" stroke="rgba(52, 100, 224, 1)" stroke-width="1" stroke-dasharray="2, 2"></path><rect width="138.8" height="138.8" clip-path="url(&quot;#SvgjsClipPath1137&quot;)" x="980.39" y="165.61" fill="url(#SvgjsPattern1138)" transform="rotate(133.26, 1049.79, 235.01)"></rect><rect width="365.44" height="365.44" clip-path="url(&quot;#SvgjsClipPath1139&quot;)" x="233.55" y="63.94" fill="url(#SvgjsPattern1140)" transform="rotate(196.81, 416.27, 246.66)"></rect><path d="M252.37 297.85 L185.35 217.27L164.62796496560782 311.7920350343922z" fill="rgba(52, 100, 224, 1)"></path></g><defs><mask id="SvgjsMask1128"><rect width="1440" height="560" fill="#ffffff"></rect></mask><pattern x="0" y="0" width="6" height="6" patternUnits="userSpaceOnUse" id="SvgjsPattern1130"><path d="M0 6L3 0L6 6" stroke="rgba(232, 232, 232, 1)" fill="none"></path></pattern><clipPath id="SvgjsClipPath1129"><circle r="66" cx="993.19" cy="408.8"></circle></clipPath><pattern x="0" y="0" width="12.78" height="12.78" patternUnits="userSpaceOnUse" id="SvgjsPattern1132"><path d="M0 12.78L6.39 0L12.78 12.78" stroke="rgba(52, 100, 224, 1)" fill="none"></path></pattern><clipPath id="SvgjsClipPath1131"><circle r="51.12" cx="701.35" cy="558.45"></circle></clipPath><pattern x="0" y="0" width="6" height="6" patternUnits="userSpaceOnUse" id="SvgjsPattern1134"><path d="M0 6L3 0L6 6" stroke="rgba(52, 100, 224, 1)" fill="none"></path></pattern><clipPath id="SvgjsClipPath1133"><circle r="24" cx="495.42" cy="59.17"></circle></clipPath><pattern x="0" y="0" width="348" height="6" patternUnits="userSpaceOnUse" id="SvgjsPattern1136"><rect width="348" height="3" x="0" y="0" fill="rgba(232, 232, 232, 1)"></rect><rect width="348" height="3" x="0" y="3" fill="rgba(0, 0, 0, 0)"></rect></pattern><clipPath id="SvgjsClipPath1135"><circle r="87" cx="924.91" cy="339.96"></circle></clipPath><pattern x="0" y="0" width="6.94" height="6.94" patternUnits="userSpaceOnUse" id="SvgjsPattern1138"><path d="M3.47 1L3.47 5.94M1 3.47L5.94 3.47" stroke="rgba(232, 232, 232, 1)" fill="none" stroke-width="2.13"></path></pattern><clipPath id="SvgjsClipPath1137"><circle r="34.7" cx="1049.79" cy="235.01"></circle></clipPath><pattern x="0" y="0" width="365.44" height="11.42" patternUnits="userSpaceOnUse" id="SvgjsPattern1140"><rect width="365.44" height="5.71" x="0" y="0" fill="rgba(232, 232, 232, 1)"></rect><rect width="365.44" height="5.71" x="0" y="5.71" fill="rgba(0, 0, 0, 0)"></rect></pattern><clipPath id="SvgjsClipPath1139"><circle r="91.36" cx="416.27" cy="246.66"></circle></clipPath></defs></svg>