<svg xmlns="http://www.w3.org/2000/svg" version="1.1" xmlns:xlink="http://www.w3.org/1999/xlink" xmlns:svgjs="http://svgjs.com/svgjs" width="1440" height="560" preserveAspectRatio="none" viewBox="0 0 1440 560"><g mask="url(&quot;#SvgjsMask1009&quot;)" fill="none"><rect width="1440" height="560" x="0" y="0" fill="#0e2a47"></rect><path d="M558.65 173.6a38.22 38.22 0 1 0-67.17-36.49z" fill="rgba(52, 100, 224, 1)"></path><path d="M335.96 328.97L363.51 328.97L363.51 332.75L335.96 332.75z" fill="rgba(240, 244, 253, 1)"></path><path d="M308.16 157.15 a52.75 52.75 0 1 0 105.5 0 a52.75 52.75 0 1 0 -105.5 0z" stroke="rgba(52, 100, 224, 1)"></path><path d="M842.39 281.54L886.45 281.54L886.45 298.8L842.39 298.8z" stroke="rgba(240, 244, 253, 1)"></path><path d="M1297.92 250.62L1317.21 250.62L1317.21 295.25L1297.92 295.25z" fill="rgba(52, 100, 224, 1)"></path><path d="M838.12 384.22L848.99 384.22L848.99 395.09L838.12 395.09z" fill="rgba(52, 100, 224, 1)"></path><path d="M280.56 108.54a2.76 2.76 0 1 0 4.93-2.48z" stroke="rgba(52, 100, 224, 1)"></path><path d="M904.72 362.9a38.3 38.3 0 1 0 62.32 44.54z" fill="rgba(52, 100, 224, 1)"></path><path d="M733.26 8.23L741.49 8.23L741.49 16.46L733.26 16.46z" stroke="rgba(240, 244, 253, 1)"></path><path d="M608.15 460.63L650.76 460.63L650.76 503.24L608.15 503.24z" stroke="rgba(52, 100, 224, 1)"></path><path d="M1434.41 435.62L1475.91 435.62L1475.91 443.85L1434.41 443.85z" fill="rgba(240, 244, 253, 1)"></path><path d="M717.05 184.27L759.18 184.27L759.18 228.22L717.05 228.22z" stroke="rgba(52, 100, 224, 1)"></path><path d="M1247.11 56.27L1265.86 56.27L1265.86 86.99L1247.11 86.99z" fill="rgba(240, 244, 253, 1)"></path><path d="M207.63 253.77 a28.28 28.28 0 1 0 56.56 0 a28.28 28.28 0 1 0 -56.56 0z" stroke="rgba(52, 100, 224, 1)"></path><path d="M171.29 456.89L192.48 456.89L192.48 508.48L171.29 508.48z" fill="rgba(240, 244, 253, 1)"></path><path d="M1073.87 344.34L1115.45 344.34L1115.45 385.92L1073.87 385.92z" fill="rgba(52, 100, 224, 1)"></path><path d="M1218.43 107.24a11.77 11.77 0 1 0 5.91-22.79z" fill="rgba(52, 100, 224, 1)"></path><path d="M484.42 275.17 a7.09 7.09 0 1 0 14.18 0 a7.09 7.09 0 1 0 -14.18 0z" stroke="rgba(240, 244, 253, 1)"></path><path d="M179.83 20.6L212.39 20.6L212.39 53.16L179.83 53.16z" fill="rgba(240, 244, 253, 1)"></path><path d="M227.46 189.22a49.21 49.21 0 1 0 3.1-98.37z" stroke="rgba(240, 244, 253, 1)"></path><path d="M1249 500.19a41.4 41.4 0 1 0 10.02-82.19z" fill="rgba(52, 100, 224, 1)"></path><path d="M834.62 463.81 a40.05 40.05 0 1 0 80.1 0 a40.05 40.05 0 1 0 -80.1 0z" stroke="rgba(52, 100, 224, 1)"></path><path d="M1289.37 306.64L1316.24 306.64L1316.24 362.09L1289.37 362.09z" stroke="rgba(52, 100, 224, 1)"></path><path d="M1326.33 334.54L1370.68 334.54L1370.68 378.89L1326.33 378.89z" fill="rgba(52, 100, 224, 1)"></path><path d="M171.23 254.47L180.2 254.47L180.2 264.72L171.23 264.72z" fill="rgba(240, 244, 253, 1)"></path><path d="M668.4 539.57 a31.03 31.03 0 1 0 62.06 0 a31.03 31.03 0 1 0 -62.06 0z" fill="rgba(52, 100, 224, 1)"></path><path d="M392.55 185.78a39.88 39.88 0 1 0 55.55-57.24z" stroke="rgba(240, 244, 253, 1)"></path><path d="M559.35 539.47a43.08 43.08 0 1 0-86.14-1.51z" fill="rgba(240, 244, 253, 1)"></path><path d="M1330.38 96.7L1352.2 96.7L1352.2 125.18L1330.38 125.18z" fill="rgba(240, 244, 253, 1)"></path><path d="M416.92 5.24a21.37 21.37 0 1 0 32.12 28.2z" fill="rgba(240, 244, 253, 1)"></path><path d="M193.97 514.53a28.9 28.9 0 1 0-45.95-35.06z" fill="rgba(52, 100, 224, 1)"></path><path d="M1067.72 209.42a12.17 12.17 0 1 0 2.72-24.18z" fill="rgba(52, 100, 224, 1)"></path><path d="M294.46 272.58 a10.91 10.91 0 1 0 21.82 0 a10.91 10.91 0 1 0 -21.82 0z" fill="rgba(240, 244, 253, 1)"></path></g><defs><mask id="SvgjsMask1009"><rect width="1440" height="560" fill="#ffffff"></rect></mask></defs></svg>