<svg xmlns="http://www.w3.org/2000/svg" version="1.1" xmlns:xlink="http://www.w3.org/1999/xlink" xmlns:svgjs="http://svgjs.com/svgjs" width="1440" height="560" preserveAspectRatio="none" viewBox="0 0 1440 560"><g mask="url(&quot;#SvgjsMask1025&quot;)" fill="none"><rect width="1440" height="560" x="0" y="0" fill="#0e2a47"></rect><path d="M96.65 120.42 a35.3 35.3 0 1 0 70.6 0 a35.3 35.3 0 1 0 -70.6 0z" stroke="rgba(52, 100, 224, 1)"></path><path d="M943.2 277.38 a48.1 48.1 0 1 0 96.2 0 a48.1 48.1 0 1 0 -96.2 0z" stroke="rgba(240, 244, 253, 1)"></path><path d="M615.37 147.36 a53.38 53.38 0 1 0 106.76 0 a53.38 53.38 0 1 0 -106.76 0z" fill="rgba(240, 244, 253, 1)"></path><path d="M497.92 69.27L499.28 69.27L499.28 117.71L497.92 117.71z" stroke="rgba(240, 244, 253, 1)"></path><path d="M1366.44 393.73L1409.94 393.73L1409.94 398.56L1366.44 398.56z" stroke="rgba(52, 100, 224, 1)"></path><path d="M1263.37 482.97a25.91 25.91 0 1 0 51.68-3.7z" stroke="rgba(240, 244, 253, 1)"></path><path d="M1314.81 282.96L1324.26 282.96L1324.26 328.94L1314.81 328.94z" fill="rgba(240, 244, 253, 1)"></path><path d="M343.78 99.52L347.99 99.52L347.99 103.73L343.78 103.73z" stroke="rgba(240, 244, 253, 1)"></path><path d="M500.13 322.9 a47.14 47.14 0 1 0 94.28 0 a47.14 47.14 0 1 0 -94.28 0z" fill="rgba(52, 100, 224, 1)"></path><path d="M1214.33 469.19 a40.27 40.27 0 1 0 80.54 0 a40.27 40.27 0 1 0 -80.54 0z" fill="rgba(52, 100, 224, 1)"></path><path d="M46.96 280.97 a30.88 30.88 0 1 0 61.76 0 a30.88 30.88 0 1 0 -61.76 0z" fill="rgba(52, 100, 224, 1)"></path><path d="M933.96 550.48L954.72 550.48L954.72 571.24L933.96 571.24z" stroke="rgba(52, 100, 224, 1)"></path><path d="M684.29 337.81L710.28 337.81L710.28 363.8L684.29 363.8z" fill="rgba(240, 244, 253, 1)"></path><path d="M241.91 209L287.74 209L287.74 254.83L241.91 254.83z" stroke="rgba(52, 100, 224, 1)"></path><path d="M1038.03 270.43a10.19 10.19 0 1 0 16.12-12.46z" stroke="rgba(240, 244, 253, 1)"></path><path d="M1100.54 222.84 a51.36 51.36 0 1 0 102.72 0 a51.36 51.36 0 1 0 -102.72 0z" stroke="rgba(52, 100, 224, 1)"></path><path d="M645.43 554.95 a27.59 27.59 0 1 0 55.18 0 a27.59 27.59 0 1 0 -55.18 0z" fill="rgba(52, 100, 224, 1)"></path><path d="M93.04 43.09L106 43.09L106 56.05L93.04 56.05z" fill="rgba(52, 100, 224, 1)"></path><path d="M39.64 211.22 a40.17 40.17 0 1 0 80.34 0 a40.17 40.17 0 1 0 -80.34 0z" stroke="rgba(52, 100, 224, 1)"></path><path d="M965.68 109.5a21.16 21.16 0 1 0 41.9-5.98z" fill="rgba(240, 244, 253, 1)"></path><path d="M1255.85 50.56a22.41 22.41 0 1 0-41.95 15.78z" fill="rgba(52, 100, 224, 1)"></path><path d="M1247.83 88.66L1263.94 88.66L1263.94 104.77L1247.83 104.77z" fill="rgba(52, 100, 224, 1)"></path><path d="M1098.68 6.5a0.16 0.16 0 1 0 0.13-0.29z" fill="rgba(240, 244, 253, 1)"></path><path d="M544.72 36.24L570.83 36.24L570.83 62.35L544.72 62.35z" stroke="rgba(240, 244, 253, 1)"></path><path d="M880.04 524.21a47.25 47.25 0 1 0 91.22-24.68z" stroke="rgba(240, 244, 253, 1)"></path><path d="M358.19 64.09L370.47 64.09L370.47 69.45L358.19 69.45z" fill="rgba(240, 244, 253, 1)"></path><path d="M231.89 34.22L262.26 34.22L262.26 58.57L231.89 58.57z" stroke="rgba(52, 100, 224, 1)"></path><path d="M1176.97 246.66L1204.21 246.66L1204.21 282.11L1176.97 282.11z" stroke="rgba(240, 244, 253, 1)"></path><path d="M267.93 70.68L313.34 70.68L313.34 108.32L267.93 108.32z" fill="rgba(52, 100, 224, 1)"></path><path d="M748.24 253.03L770.49 253.03L770.49 267.71L748.24 267.71z" stroke="rgba(240, 244, 253, 1)"></path><path d="M1192.84 161.66a20.91 20.91 0 1 0 5.15 41.5z" fill="rgba(240, 244, 253, 1)"></path><path d="M938.87 19.32L946.4 19.32L946.4 26.85L938.87 26.85z" fill="rgba(240, 244, 253, 1)"></path><path d="M742.85 364.97 a36.3 36.3 0 1 0 72.6 0 a36.3 36.3 0 1 0 -72.6 0z" fill="rgba(52, 100, 224, 1)"></path></g><defs><mask id="SvgjsMask1025"><rect width="1440" height="560" fill="#ffffff"></rect></mask></defs></svg>