<svg xmlns="http://www.w3.org/2000/svg" version="1.1" xmlns:xlink="http://www.w3.org/1999/xlink" xmlns:svgjs="http://svgjs.com/svgjs" width="1440" height="560" preserveAspectRatio="none" viewBox="0 0 1440 560"><g mask="url(&quot;#SvgjsMask1037&quot;)" fill="none"><rect width="1440" height="560" x="0" y="0" fill="rgba(251, 251, 251, 1)"></rect><path d="M715.47 618.85C844.25 590.74 865.9 277.35 1095.03 252.88 1324.16 228.41 1371.97 99.13 1474.59 96.08" stroke="rgba(52, 100, 224, 0.69)" stroke-width="2"></path><path d="M665.4 590.48C801.98 560.57 855.47 205.54 1067.68 201.93 1279.89 198.32 1365.19 318.33 1469.96 319.53" stroke="rgba(52, 100, 224, 0.69)" stroke-width="2"></path><path d="M206.36 615.46C320.37 613.45 421.3 468.12 637.97 468.04 854.65 467.96 853.78 538.04 1069.59 538.04 1285.39 538.04 1391.89 468.27 1501.2 468.04" stroke="rgba(52, 100, 224, 0.69)" stroke-width="2"></path><path d="M399 634.16C522.87 625.3 609.05 385.38 828.4 384.42 1047.75 383.46 1043.1 454.42 1257.81 454.42 1472.51 454.42 1578.44 384.65 1687.21 384.42" stroke="rgba(52, 100, 224, 0.69)" stroke-width="2"></path><path d="M457.1 637.69C593.62 632.61 684.66 422.36 955.5 413.57 1226.33 404.78 1319.54 215.74 1453.89 211.97" stroke="rgba(52, 100, 224, 0.69)" stroke-width="2"></path></g><defs><mask id="SvgjsMask1037"><rect width="1440" height="560" fill="#ffffff"></rect></mask></defs></svg>