<svg xmlns="http://www.w3.org/2000/svg" version="1.1" xmlns:xlink="http://www.w3.org/1999/xlink" xmlns:svgjs="http://svgjs.com/svgjs" width="1440" height="560" preserveAspectRatio="none" viewBox="0 0 1440 560"><g mask="url(&quot;#SvgjsMask1091&quot;)" fill="none"><rect width="1440" height="560" x="0" y="0" fill="rgba(52, 100, 224, 1)"></rect><path d="M0,532.134C104.07,522.151,207,514.407,300.402,467.435C401.423,416.631,518.072,360.286,554.544,253.252C590.812,146.816,494.636,42.382,483.362,-69.497C471.351,-188.688,545.604,-317.366,486.539,-421.588C426.163,-528.123,297.029,-577.205,178.406,-607.596C62.312,-637.339,-60.954,-632.025,-173.438,-590.674C-281.621,-550.904,-360.236,-464.533,-439.187,-380.558C-521.323,-293.195,-626.419,-211.2,-641.991,-92.304C-657.527,26.317,-572.466,129.956,-520.14,237.54C-469.161,342.353,-441.289,471.413,-339.873,528.853C-239.253,585.842,-115.11,543.176,0,532.134" fill="#1e4cc4"></path><path d="M1440 1058.758C1536.953 1061.157 1645.333 1056.281 1716.8220000000001 990.744 1786.694 926.6890000000001 1760.6770000000001 810.587 1803.1480000000001 725.844 1848.063 636.225 1977.409 583.696 1970.9589999999998 483.65999999999997 1964.607 385.14300000000003 1836.455 347.052 1773.806 270.755 1708.792 191.57799999999997 1691.329 65.90899999999999 1596.367 27.464000000000055 1501.095-11.106999999999971 1386.978 25.91999999999996 1298.577 78.35899999999998 1218.864 125.644 1193.419 224.11900000000003 1138.719 298.938 1089.588 366.14 1026.683 419.48699999999997 993.396 495.788 951.297 592.287 884.943 698.057 921.532 796.777 958.02 895.2239999999999 1078.138 929.908 1171.845 977.258 1256.951 1020.262 1344.675 1056.399 1440 1058.758" fill="#5f85e7"></path></g><defs><mask id="SvgjsMask1091"><rect width="1440" height="560" fill="#ffffff"></rect></mask></defs></svg>