<svg xmlns="http://www.w3.org/2000/svg" version="1.1" xmlns:xlink="http://www.w3.org/1999/xlink" xmlns:svgjs="http://svgjs.com/svgjs" width="1440" height="560" preserveAspectRatio="none" viewBox="0 0 1440 560"><g mask="url(&quot;#SvgjsMask1059&quot;)" fill="none"><rect width="1440" height="560" x="0" y="0" fill="rgba(52, 100, 224, 1)"></rect><path d="M0,683.061C134.826,684.58,276.879,680.149,388.43,604.408C498.926,529.383,576.972,405.973,601.463,274.679C623.878,154.515,542.108,45.146,514.984,-74.044C490.628,-181.07,506.02,-295.587,450.182,-390.085C388.154,-495.058,299.089,-587.416,185.478,-631.681C67.223,-677.756,-68.162,-681.753,-187.491,-638.535C-303.608,-596.48,-387.738,-498.658,-459.439,-398.106C-526.147,-304.557,-553.048,-194.741,-583.04,-83.828C-617.201,42.503,-683.974,169.937,-646.992,295.471C-608.543,425.981,-499.559,525.798,-382.844,595.718C-268.236,664.376,-133.592,681.556,0,683.061" fill="#1d49bb"></path><path d="M1440 1037.549C1528.013 1037.501 1597.23 966.5799999999999 1665.967 911.6120000000001 1728.536 861.576 1778.687 802.167 1820.1 733.586 1866.237 657.1800000000001 1926.54 580.005 1919.9569999999999 490.993 1913.266 400.519 1860.779 311.028 1785.145 260.93 1713.874 213.723 1619.84 247.44299999999998 1535.111 236.082 1466.388 226.86700000000002 1401.293 182.099 1334.441 200.49900000000002 1267.276 218.985 1219.843 277.44 1179.222 334.034 1141.2559999999999 386.929 1136.121 452.791 1110.42 512.614 1073.342 598.917 971.231 672.391 994.793 763.319 1017.3820000000001 850.494 1137.1979999999999 864.63 1213.874 911.8589999999999 1288.817 958.021 1351.981 1037.597 1440 1037.549" fill="#698ce8"></path></g><defs><mask id="SvgjsMask1059"><rect width="1440" height="560" fill="#ffffff"></rect></mask></defs></svg>