<svg xmlns="http://www.w3.org/2000/svg" version="1.1" xmlns:xlink="http://www.w3.org/1999/xlink" xmlns:svgjs="http://svgjs.com/svgjs" width="1440" height="560" preserveAspectRatio="none" viewBox="0 0 1440 560"><g mask="url(&quot;#SvgjsMask1088&quot;)" fill="none"><rect width="1440" height="560" x="0" y="0" fill="rgba(52, 100, 224, 1)"></rect><path d="M0,374.68C68.916,372.894,110.745,298.762,173.079,269.317C248.587,233.649,349.988,248.46,403.29,184.176C458.283,117.853,461.253,20.718,450.039,-64.706C438.746,-150.732,407.508,-239.965,340.394,-294.953C276.191,-347.555,182.894,-328.408,102.587,-349.379C25.479,-369.514,-43.259,-427.581,-122.065,-415.715C-204.31,-403.331,-277.643,-350.441,-328.325,-284.495C-377.595,-220.386,-388.758,-137.537,-397.619,-57.169C-406.229,20.921,-421.652,107.152,-378.763,172.975C-336.797,237.381,-246.793,242.306,-178.942,278.439C-117.927,310.931,-69.104,376.471,0,374.68" fill="#1e4cc4"></path><path d="M1440 1011.8399999999999C1537.691 1030.071 1647.967 1067.407 1732.08 1014.485 1816.194 961.562 1819.9 842.577 1856.1109999999999 750.031 1890.093 663.182 1953.463 580.367 1937.923 488.40999999999997 1922.464 396.927 1840.291 335.63300000000004 1774.952 269.763 1713.758 208.072 1646.807 157.973 1569.946 117.44299999999998 1476.018 67.91300000000001 1382.471-10.287000000000035 1277.8029999999999 7.606999999999971 1171.9859999999999 25.69799999999998 1099.536 123.25999999999999 1034.839 208.926 973.348 290.346 921.593 382.913 917.372 484.85699999999997 913.337 582.298 957.483 674.644 1012.213 755.364 1061.071 827.423 1135.807 872.379 1210.476 917.146 1282.926 960.5830000000001 1356.96 996.3430000000001 1440 1011.8399999999999" fill="#5f85e7"></path></g><defs><mask id="SvgjsMask1088"><rect width="1440" height="560" fill="#ffffff"></rect></mask></defs></svg>