<svg xmlns="http://www.w3.org/2000/svg" version="1.1" xmlns:xlink="http://www.w3.org/1999/xlink" xmlns:svgjs="http://svgjs.com/svgjs" width="1440" height="560" preserveAspectRatio="none" viewBox="0 0 1440 560"><g mask="url(&quot;#SvgjsMask1089&quot;)" fill="none"><rect width="1440" height="560" x="0" y="0" fill="rgba(52, 100, 224, 1)"></rect><path d="M0,447.631C99.439,456.104,207.762,507.803,293.208,456.24C378.649,404.68,385.242,285.511,422.235,192.828C457.26,105.075,507.769,21.919,504.243,-72.499C500.508,-172.518,463.573,-269.429,402.023,-348.355C338.525,-429.78,253.137,-495.705,153.39,-522.4C54.808,-548.784,-53.387,-539.189,-145.297,-494.836C-230.751,-453.598,-286.637,-371.132,-332.359,-287.991C-371.488,-216.839,-362.837,-133.193,-386.837,-55.619C-416.848,41.386,-517.005,126.04,-490.8,224.141C-465.033,320.605,-353.633,367.491,-262.764,408.869C-180.523,446.318,-90.04,439.959,0,447.631" fill="#1e4cc4"></path><path d="M1440 896.494C1502.781 886.1759999999999 1561.226 866.156 1616.448 834.558 1674.28 801.466 1738.409 769.52 1767.0439999999999 709.356 1795.815 648.906 1772.433 579.491 1769.684 512.599 1766.583 437.137 1805.199 342.904 1749.871 291.495 1692.929 238.586 1597.932 296.767 1521.602 282.088 1455.942 269.461 1402.777 196.10700000000003 1337.897 212.26999999999998 1273.212 228.38400000000001 1251.278 308.302 1209.113 359.935 1168.423 409.76300000000003 1118.075 450.469 1094.5 510.325 1066.519 581.369 1038.6390000000001 659.88 1062.396 732.446 1086.837 807.101 1149.83 868.1030000000001 1221.878 899.404 1289.949 928.977 1366.765 908.53 1440 896.494" fill="#5f85e7"></path></g><defs><mask id="SvgjsMask1089"><rect width="1440" height="560" fill="#ffffff"></rect></mask></defs></svg>