<svg xmlns="http://www.w3.org/2000/svg" version="1.1" xmlns:xlink="http://www.w3.org/1999/xlink" xmlns:svgjs="http://svgjs.com/svgjs" width="1440" height="560" preserveAspectRatio="none" viewBox="0 0 1440 560"><g mask="url(&quot;#SvgjsMask1045&quot;)" fill="none"><rect width="1440" height="560" x="0" y="0" fill="rgba(251, 251, 251, 1)"></rect><path d="M 0,259 C 72,233 216,126.8 360,129 C 504,131.2 576,274 720,270 C 864,266 936,133.8 1080,109 C 1224,84.2 1368,138.6 1440,146L1440 560L0 560z" fill="rgba(95, 133, 231, 1)"></path><path d="M 0,414 C 72,432.6 216,508 360,507 C 504,506 576,416.8 720,409 C 864,401.2 936,466.4 1080,468 C 1224,469.6 1368,427.2 1440,417L1440 560L0 560z" fill="rgba(52, 100, 224, 1)"></path></g><defs><mask id="SvgjsMask1045"><rect width="1440" height="560" fill="#ffffff"></rect></mask></defs></svg>