<svg xmlns="http://www.w3.org/2000/svg" version="1.1" xmlns:xlink="http://www.w3.org/1999/xlink" xmlns:svgjs="http://svgjs.com/svgjs" width="1440" height="560" preserveAspectRatio="none" viewBox="0 0 1440 560"><g mask="url(&quot;#SvgjsMask1042&quot;)" fill="none"><rect width="1440" height="560" x="0" y="0" fill="rgba(251, 251, 251, 1)"></rect><path d="M 0,129 C 72,147.6 216,229.4 360,222 C 504,214.6 576,107 720,92 C 864,77 936,163.2 1080,147 C 1224,130.8 1368,38.2 1440,11L1440 560L0 560z" fill="rgba(95, 133, 231, 1)"></path><path d="M 0,328 C 72,349.6 216,441.4 360,436 C 504,430.6 576,285.8 720,301 C 864,316.2 936,507 1080,512 C 1224,517 1368,363.2 1440,326L1440 560L0 560z" fill="rgba(52, 100, 224, 1)"></path></g><defs><mask id="SvgjsMask1042"><rect width="1440" height="560" fill="#ffffff"></rect></mask></defs></svg>