<svg xmlns="http://www.w3.org/2000/svg" version="1.1" xmlns:xlink="http://www.w3.org/1999/xlink" xmlns:svgjs="http://svgjs.com/svgjs" width="1440" height="560" preserveAspectRatio="none" viewBox="0 0 1440 560"><g mask="url(&quot;#SvgjsMask1041&quot;)" fill="none"><rect width="1440" height="560" x="0" y="0" fill="rgba(251, 251, 251, 1)"></rect><path d="M 0,23 C 72,55.2 216,187.8 360,184 C 504,180.2 576,-13 720,4 C 864,21 936,261.2 1080,269 C 1224,276.8 1368,88.2 1440,43L1440 560L0 560z" fill="rgba(95, 133, 231, 1)"></path><path d="M 0,341 C 72,381.4 216,546.4 360,543 C 504,539.6 576,339.8 720,324 C 864,308.2 936,454.6 1080,464 C 1224,473.4 1368,389.6 1440,371L1440 560L0 560z" fill="rgba(52, 100, 224, 1)"></path></g><defs><mask id="SvgjsMask1041"><rect width="1440" height="560" fill="#ffffff"></rect></mask></defs></svg>