<svg xmlns="http://www.w3.org/2000/svg" version="1.1" xmlns:xlink="http://www.w3.org/1999/xlink" xmlns:svgjs="http://svgjs.com/svgjs" width="1440" height="560" preserveAspectRatio="none" viewBox="0 0 1440 560"><g mask="url(&quot;#SvgjsMask1068&quot;)" fill="none"><rect width="1440" height="560" x="0" y="0" fill="rgba(251, 251, 251, 1)"></rect><path d="M 0,162 C 57.6,144.8 172.8,69.8 288,76 C 403.2,82.2 460.8,184 576,193 C 691.2,202 748.8,125.2 864,121 C 979.2,116.8 1036.8,178 1152,172 C 1267.2,166 1382.4,107.2 1440,91L1440 560L0 560z" fill="rgba(95, 133, 231, 1)"></path><path d="M 0,295 C 57.6,335.4 172.8,477.2 288,497 C 403.2,516.8 460.8,408.6 576,394 C 691.2,379.4 748.8,432.2 864,424 C 979.2,415.8 1036.8,326.2 1152,353 C 1267.2,379.8 1382.4,517 1440,558L1440 560L0 560z" fill="rgba(52, 100, 224, 1)"></path></g><defs><mask id="SvgjsMask1068"><rect width="1440" height="560" fill="#ffffff"></rect></mask></defs></svg>