<svg xmlns="http://www.w3.org/2000/svg" version="1.1" xmlns:xlink="http://www.w3.org/1999/xlink" xmlns:svgjs="http://svgjs.com/svgjs" width="1440" height="560" preserveAspectRatio="none" viewBox="0 0 1440 560"><g mask="url(&quot;#SvgjsMask1065&quot;)" fill="none"><rect width="1440" height="560" x="0" y="0" fill="rgba(251, 251, 251, 1)"></rect><path d="M 0,261 C 57.6,230.2 172.8,130.8 288,107 C 403.2,83.2 460.8,153.2 576,142 C 691.2,130.8 748.8,32.4 864,51 C 979.2,69.6 1036.8,242 1152,235 C 1267.2,228 1382.4,59.8 1440,16L1440 560L0 560z" fill="rgba(95, 133, 231, 1)"></path><path d="M 0,444 C 57.6,432.8 172.8,380.4 288,388 C 403.2,395.6 460.8,499.6 576,482 C 691.2,464.4 748.8,288.6 864,300 C 979.2,311.4 1036.8,526.6 1152,539 C 1267.2,551.4 1382.4,397.4 1440,362L1440 560L0 560z" fill="rgba(52, 100, 224, 1)"></path></g><defs><mask id="SvgjsMask1065"><rect width="1440" height="560" fill="#ffffff"></rect></mask></defs></svg>